<svg width="428" height="354" xmlns="http://www.w3.org/2000/svg" xmlns:xlink="http://www.w3.org/1999/xlink"><svg version="1.0" width="112.67" height="127.33" viewBox="-1 -1 85 96" id="Cramaze_icon" y="161" xmlns="http://www.w3.org/2000/svg"><path d="M34.3 10.8c-2.8 1-6.8 3.1-8.8 4.6-10.2 7.8-14.1 23.5-8.5 34.4l1.6 3.4 2.7-6c1.5-3.3 2.7-7 2.7-8.3 0-7.4 5.4-15.9 11.7-18.5 7-3 16.4-1.1 21.4 4.2 1.8 1.9 3.2 2.4 7.1 2.4 2.6 0 4.8-.2 4.8-.5 0-1.6-3.2-6.4-6.2-9.1-7.8-7.4-19-10-28.5-6.6z"/><path d="M27.2 49.2c-7.8 15.5-14 28.3-13.9 28.4.1.1 2.2.4 4.7.6l4.5.3 3.8-7.3c3.7-6.9 4-7.3 6.5-6.7 13.6 3.7 23 1.5 31.7-7.4l3.9-4.1H62c-4.4 0-7.7.6-10.7 2.1-3.4 1.6-5.7 2-9.4 1.7-2.8-.3-5.5-1-6-1.5-.7-.7.1-3.3 2.2-7.7l3.2-6.8 2.1 3.4c1.9 3 2.5 3.3 6.9 3.3 2.6 0 4.7-.1 4.7-.3C55 46.7 42 21 41.7 21c-.2 0-6.7 12.7-14.5 28.2zm28.5 23.5c.8 2.1 2 4.4 2.5 5 1.1 1.4 9.8 1.8 9.8.6 0-.4-.8-2.7-1.7-5-1.8-4.3-1.8-4.3-7-4.3h-5.2l1.6 3.7z"/></svg><svg id="clear-view-escapes" data-name="Layer 1" width="144.4" height="61.53" viewBox="-1 -1 144.4 61.53" x="152" xmlns="http://www.w3.org/2000/svg"><path d="M19.5 27.52v4.75H5.93v5.51h12.45v4.39H5.93v6.3h13.85v4.75H.28v-25.7H19.5zm7.86 21.07a3 3 0 00.88 1 3.78 3.78 0 001.24.56 5.84 5.84 0 001.46.18 5.46 5.46 0 001.13-.13 3.86 3.86 0 001.08-.4 2.47 2.47 0 00.85-.75 1.89 1.89 0 00.32-1.13 1.91 1.91 0 00-1.53-1.73 30.59 30.59 0 00-4.3-1.19q-1.12-.25-2.18-.59a7.38 7.38 0 01-1.89-.9 4.35 4.35 0 01-1.33-1.4 4 4 0 01-.5-2.07 5.6 5.6 0 01.7-3 5.16 5.16 0 011.85-1.82 8.13 8.13 0 012.59-.94 15.92 15.92 0 013-.27 14.79 14.79 0 012.93.29 7.77 7.77 0 012.54 1 5.83 5.83 0 011.8 1.88 6.11 6.11 0 01.89 2.82H34a2.24 2.24 0 00-1.12-2 5.1 5.1 0 00-2.37-.52 8.77 8.77 0 00-.94.05 3.15 3.15 0 00-.92.23 1.91 1.91 0 00-.7.52 1.38 1.38 0 00-.29.92 1.4 1.4 0 00.5 1.12 3.88 3.88 0 001.31.7 16.38 16.38 0 001.85.49l2.18.49a21.57 21.57 0 012.18.61 7.2 7.2 0 011.89 1 4.63 4.63 0 011.33 1.48 4.34 4.34 0 01.5 2.18 5.65 5.65 0 01-2.66 5.07A7.9 7.9 0 0134 53.37a15.9 15.9 0 01-3.11.31 15.36 15.36 0 01-3.17-.32A8.35 8.35 0 0125 52.27a6.17 6.17 0 01-2-2 6.25 6.25 0 01-.85-3.11H27a2.8 2.8 0 00.36 1.43zM51.27 38a3.59 3.59 0 00-2.05.56A4.45 4.45 0 0047.87 40a6.23 6.23 0 00-.74 1.94 10.54 10.54 0 00-.21 2.06 10.11 10.11 0 00.21 2 6.32 6.32 0 00.7 1.89 4 4 0 001.31 1.39 3.61 3.61 0 002 .54 3.75 3.75 0 002.83-1 4.86 4.86 0 001.24-2.75h4.93a8.43 8.43 0 01-2.88 5.65 9.29 9.29 0 01-6.08 1.94 10.16 10.16 0 01-3.83-.7 8.49 8.49 0 01-3-2 8.92 8.92 0 01-1.91-3 10.42 10.42 0 01-.68-3.83 12.4 12.4 0 01.63-4 9 9 0 011.9-3.13 8.49 8.49 0 013-2.1 10.15 10.15 0 014-.76 11.63 11.63 0 013.19.43 8.49 8.49 0 012.73 1.31 6.79 6.79 0 012.83 5.31h-5A3.43 3.43 0 0051.27 38zm11.55 2.33a5.93 5.93 0 01.9-3 6.13 6.13 0 012-1.91 8.83 8.83 0 012.75-1 15.71 15.71 0 013.08-.31 20.85 20.85 0 012.84.2 8.72 8.72 0 012.63.77A5.18 5.18 0 0179 36.67a4.47 4.47 0 01.76 2.72v9.68a19.49 19.49 0 00.14 2.41 4.34 4.34 0 00.5 1.73h-5.19a6.77 6.77 0 01-.21-.88 7.44 7.44 0 01-.13-.92A6.64 6.64 0 0172 53.17a11.55 11.55 0 01-3.38.5 9.1 9.1 0 01-2.48-.32 5.68 5.68 0 01-2-1 4.69 4.69 0 01-1.35-1.73 5.84 5.84 0 01-.49-2.48 5.42 5.42 0 01.56-2.61 4.66 4.66 0 011.44-1.64 6.44 6.44 0 012-.92 21.75 21.75 0 012.29-.49q1.15-.18 2.27-.29a13.74 13.74 0 002-.32 3.43 3.43 0 001.37-.63 1.38 1.38 0 00.4-1.24 2.72 2.72 0 00-.27-1.31 2 2 0 00-.72-.69 2.86 2.86 0 00-1-.36 8.61 8.61 0 00-1.28-.09 3.88 3.88 0 00-2.37.65 2.89 2.89 0 00-1 2.16h-5.17zm11.8 3.78a2.28 2.28 0 01-.81.45 8.28 8.28 0 01-1 .27c-.41.07-.81.17-1.2.17s-.82.11-1.22.18a9.24 9.24 0 00-1.13.29 3.34 3.34 0 00-1 .49 2.3 2.3 0 00-.67.77 2.49 2.49 0 00-.25 1.19 2.4 2.4 0 00.25 1.15 1.93 1.93 0 00.68.74 2.9 2.9 0 001 .38 6.48 6.48 0 001.19.11 4.51 4.51 0 002.34-.5 3.36 3.36 0 001.22-1.21 3.87 3.87 0 00.49-1.42 10.06 10.06 0 00.12-1.17v-1.89zm13.94-9.51V37h.07A5.62 5.62 0 0191 34.78a7.29 7.29 0 013.17-.68 8.07 8.07 0 013.78.83 7.82 7.82 0 012.63 2.2 9.31 9.31 0 011.55 3.19 14.19 14.19 0 01.5 3.8 12.82 12.82 0 01-.5 3.6 9.18 9.18 0 01-1.53 3.06 7.58 7.58 0 01-2.6 2.11 7.69 7.69 0 01-3.58.79 7.23 7.23 0 01-3.18-.7 6 6 0 01-2.39-2.07h-.04v8.82H83.7V34.6h4.86zm6.64 14.76A4.09 4.09 0 0096.56 48a5.43 5.43 0 00.74-1.89 11.19 11.19 0 00.22-2.2 10.32 10.32 0 00-.23-2.2 5.86 5.86 0 00-.77-1.92 4.33 4.33 0 00-1.39-1.37 3.87 3.87 0 00-2.08-.42 3.94 3.94 0 00-2.11.52 4.22 4.22 0 00-1.37 1.35 5.6 5.6 0 00-.74 1.91 11.3 11.3 0 00-.2 2.22 10.31 10.31 0 00.23 2.2 5.69 5.69 0 00.76 1.8 4.36 4.36 0 005.58 1.36zm15.95-.61a5.24 5.24 0 006 .34 3.21 3.21 0 001.37-1.64H123a8.54 8.54 0 01-3.31 4.79 9.75 9.75 0 01-5.4 1.44 10.6 10.6 0 01-4-.7 8.22 8.22 0 01-3-2 9 9 0 01-1.89-3.09 11.34 11.34 0 01-.67-4 10.84 10.84 0 01.68-3.89 9 9 0 014.95-5.18 9.63 9.63 0 013.87-.76 8.84 8.84 0 014.14.92 8.26 8.26 0 012.9 2.46A10.14 10.14 0 01123 41a13.14 13.14 0 01.36 4.14H109.9a5.16 5.16 0 001.25 3.61zm5.78-9.75a3.59 3.59 0 00-2.79-1 4.45 4.45 0 00-2 .41 3.89 3.89 0 00-1.3 1 3.77 3.77 0 00-.68 1.3 5.83 5.83 0 00-.23 1.22h8.31a5.91 5.91 0 00-1.31-2.93zm13.71 9.59a3 3 0 00.88 1 3.78 3.78 0 001.24.56 5.83 5.83 0 001.46.18 5.46 5.46 0 001.13-.13 3.86 3.86 0 001.08-.4 2.47 2.47 0 00.81-.72 1.89 1.89 0 00.32-1.13 1.91 1.91 0 00-1.56-1.76 30.55 30.55 0 00-4.22-1.19q-1.11-.25-2.18-.59a7.39 7.39 0 01-1.89-.9 4.36 4.36 0 01-1.33-1.4 4 4 0 01-.5-2.07 5.6 5.6 0 01.7-3 5.18 5.18 0 011.85-1.82 8.13 8.13 0 012.59-.94 15.91 15.91 0 013-.27 14.79 14.79 0 012.93.29 7.77 7.77 0 012.54 1 5.84 5.84 0 011.85 1.82 6.11 6.11 0 01.88 2.86h-4.86a2.24 2.24 0 00-1.12-2 5.1 5.1 0 00-2.37-.52 8.77 8.77 0 00-.94.05 3.15 3.15 0 00-.92.23 1.9 1.9 0 00-.7.52 1.38 1.38 0 00-.29.92 1.4 1.4 0 00.5 1.12 3.87 3.87 0 001.31.7 16.33 16.33 0 001.85.49l2.1.51a21.57 21.57 0 012.18.61 7.18 7.18 0 011.89 1 4.63 4.63 0 011.33 1.48 4.33 4.33 0 01.5 2.18 5.65 5.65 0 01-2.68 5.04 7.89 7.89 0 01-2.72 1.06 15.9 15.9 0 01-3.11.31 15.35 15.35 0 01-3.17-.32 8.35 8.35 0 01-2.75-1.08 6.18 6.18 0 01-2-2 6.25 6.25 0 01-.85-3.11h4.86a2.8 2.8 0 00.38 1.42zm-107-42.3a6.36 6.36 0 00-.55-1.43 4 4 0 00-.9-1.12A4 4 0 0020.9 3a5.11 5.11 0 00-1.71-.26 5 5 0 00-2.46.58A4.84 4.84 0 0015 4.85a6.93 6.93 0 00-1 2.19 10.16 10.16 0 000 5 6.92 6.92 0 001 2.19 4.83 4.83 0 001.69 1.54 5 5 0 002.46.57A4.44 4.44 0 0021 16a4.12 4.12 0 001.38-1 4.71 4.71 0 00.9-1.49 7.13 7.13 0 00.43-1.83h3.05a8.48 8.48 0 01-.69 2.93 7.17 7.17 0 01-1.59 2.29 7 7 0 01-2.35 1.49 8.14 8.14 0 01-3 .53 8.43 8.43 0 01-3.59-.74 7.88 7.88 0 01-2.69-2 9 9 0 01-1.69-3 11 11 0 01-.59-3.63 11 11 0 01.59-3.6 9 9 0 011.69-3 8 8 0 012.69-2 8.29 8.29 0 013.65-.76A9.46 9.46 0 0122 .6a7.31 7.31 0 012.34 1.2A6.23 6.23 0 0126 3.72a6.66 6.66 0 01.78 2.58h-3.14zM29.31.62h2.85v17.85h-2.85V.62zm8.18 12.12a5 5 0 00.21 1.45 3.57 3.57 0 00.64 1.23 3.06 3.06 0 001.08.84 3.54 3.54 0 001.55.31A3.42 3.42 0 0043 16a3.17 3.17 0 001.14-1.61h2.7a5.36 5.36 0 01-2.1 3.26 5.71 5.71 0 01-1.74.85 7 7 0 01-2 .29 6.85 6.85 0 01-2.7-.5 5.58 5.58 0 01-2-1.4 5.93 5.93 0 01-1.3-2.12 8.74 8.74 0 01-.36-2.77 7.79 7.79 0 01.44-2.61 6.68 6.68 0 011.25-2.18 5.86 5.86 0 014.56-2 5.8 5.8 0 012.74.64 6 6 0 012 1.69 6.84 6.84 0 011.17 2.39 7.42 7.42 0 01.2 2.81h-9.5zm6.65-1.88a4.61 4.61 0 00-.29-1.3 3.47 3.47 0 00-.65-1.09 3.23 3.23 0 00-1-.75 3 3 0 00-1.31-.29 3.42 3.42 0 00-1.36.26 3.11 3.11 0 00-1.05.73 3.59 3.59 0 00-.7 1.09 3.78 3.78 0 00-.29 1.35h6.65zM60 15.59a1.51 1.51 0 00.14.75.58.58 0 00.54.23H61a1.85 1.85 0 00.4 0v2l-.4.04-.49.11-.5.08h-.43a2.75 2.75 0 01-1.45-.35 1.74 1.74 0 01-.75-1.23 5 5 0 01-2.09 1.2 8.22 8.22 0 01-2.39.38 5.86 5.86 0 01-1.68-.24 4.38 4.38 0 01-1.41-.7 3.35 3.35 0 01-1-1.18 3.62 3.62 0 01-.35-1.68 3.84 3.84 0 01.44-2 3.24 3.24 0 011.15-1.18 5.21 5.21 0 011.6-.61q.89-.19 1.79-.29a14.67 14.67 0 011.48-.21 6.86 6.86 0 001.24-.21 1.9 1.9 0 00.84-.37 1.27 1.27 0 00.31-.94 1.46 1.46 0 00-.26-.9 1.77 1.77 0 00-.65-.54 2.82 2.82 0 00-.86-.25 6.94 6.94 0 00-.9-.06 3.58 3.58 0 00-2 .5 2 2 0 00-.87 1.55h-2.83a4.29 4.29 0 01.6-2.08 4.14 4.14 0 011.34-1.33 5.48 5.48 0 011.84-.7 10.94 10.94 0 012.1-.2 8.85 8.85 0 011.88.2 5.34 5.34 0 011.65.62 3.61 3.61 0 011.19 1.16A3.19 3.19 0 0160 8.94v6.65zM57.14 12a3.45 3.45 0 01-1.6.51q-1 .09-1.9.26a6.12 6.12 0 00-.87.21 2.63 2.63 0 00-.75.38 1.65 1.65 0 00-.51.63 2.14 2.14 0 00-.19.94 1.19 1.19 0 00.27.8 2 2 0 00.66.51 3.08 3.08 0 00.85.26 5.3 5.3 0 00.84.07 4.6 4.6 0 001-.12A3.4 3.4 0 0056 16a2.73 2.73 0 00.81-.76 1.93 1.93 0 00.33-1.14V12zm5.92-6.46h2.68V8h.05a2.88 2.88 0 01.49-1 4.73 4.73 0 01.88-.91 4.4 4.4 0 011.14-.66 3.41 3.41 0 011.28-.25 6.21 6.21 0 01.69 0h.39V8L70 7.93a5.06 5.06 0 00-.61 0 3.28 3.28 0 00-1.36.29 3.13 3.13 0 00-1.09.78 4.16 4.16 0 00-.75 1.39 6 6 0 00-.27 1.9v6.15h-2.86V5.54zM77.19.62h3.25l4.48 14.13H85L89.54.62h3.17l-6.1 17.85h-3.47zm17.23 0h2.85v2.7h-2.85V.62zm0 4.93h2.85v12.92h-2.85V5.54zm8.17 7.19a5 5 0 00.21 1.45 3.57 3.57 0 00.64 1.23 3.06 3.06 0 001.08.84 3.54 3.54 0 001.55.31 3.42 3.42 0 002-.54 3.18 3.18 0 001.14-1.61h2.7a5.36 5.36 0 01-2.1 3.26 5.71 5.71 0 01-1.74.85 7 7 0 01-2 .29 6.85 6.85 0 01-2.7-.5 5.58 5.58 0 01-2-1.4 5.93 5.93 0 01-1.22-2.15 8.73 8.73 0 01-.41-2.77 7.77 7.77 0 01.44-2.61 6.69 6.69 0 011.25-2.18 5.86 5.86 0 014.56-2 5.79 5.79 0 012.74.64 6 6 0 012 1.69 6.85 6.85 0 011.16 2.41 7.42 7.42 0 01.19 2.81h-9.5zm6.65-1.88a4.6 4.6 0 00-.29-1.3 3.48 3.48 0 00-.65-1.09 3.22 3.22 0 00-1-.75 3 3 0 00-1.3-.28 3.43 3.43 0 00-1.36.26 3.12 3.12 0 00-1 .73 3.6 3.6 0 00-.7 1.09 3.8 3.8 0 00-.29 1.35h6.65zm3.86-5.32h3l2.53 9.65 2.42-9.65H124l2.33 9.65L129 5.54h2.9l-4 12.93h-2.93l-2.4-9.6-2.37 9.6h-3z" transform="translate(-.28 -.19)" fill="#fff"/></svg><svg id="comment" data-name="Layer 1" width="66" height="66" viewBox="-1 -1 66 66" x="152" y="61.53" xmlns="http://www.w3.org/2000/svg"><path d="M.72.08A.67.67 0 000 .8v46.48a.72.72 0 00.72.72H48l16 16V.72a.67.67 0 00-.72-.72H.8z" fill="#2f5572"/></svg><svg viewBox="-1 -1 502 502" width="65" height="65" id="construction-icon" x="130" y="288.33" xmlns="http://www.w3.org/2000/svg"><style>.dshp1{fill:#333}</style><path d="M448 137.55c0-59.17-45.88-107.62-104-111.72v-8.28c0-4.42-3.58-8-8-8h-16c-4.42 0-8 3.58-8 8v8.28c-58.12 4.1-104 52.55-104 111.72h.01-.01c-4.42 0-8 3.58-8 8v16c0 4.41 3.58 8 8 8h240c4.42 0 8-3.59 8-8v-16c0-4.42-3.58-8-8-8z" fill="#ffa64d"/><path fill-rule="evenodd" class="dshp1" d="M352 213.55c0-11.03 8.97-20 20-20s20 8.97 20 20-8.97 20-20 20-20-8.97-20-20zm16 0c0 2.2 1.8 4 4 4s4-1.8 4-4-1.8-4-4-4-4 1.8-4 4zm-84 20c-11.03 0-20-8.97-20-20s8.97-20 20-20 20 8.97 20 20-8.97 20-20 20zm4-20c0-2.2-1.8-4-4-4s-4 1.8-4 4 1.8 4 4 4 4-1.8 4-4z"/><path class="dshp1" d="M368 265.55h-16c0 13.23-10.77 24-24 24s-24-10.77-24-24h-16c0 22.05 17.94 40 40 40s40-17.95 40-40z"/><path fill-rule="evenodd" class="dshp1" d="M80 265.55c0-13.23 10.77-24 24-24s24 10.77 24 24-10.77 24-24 24-24-10.77-24-24zm16 0c0 4.41 3.58 8 8 8s8-3.59 8-8c0-4.42-3.58-8-8-8s-8 3.58-8 8z"/><path fill-rule="evenodd" class="dshp1" d="M192 463.25v34.3h-16v-32.59c-9.09-1.83-16.78-8.27-19.95-17.24l-13.47-38.17H65.43l-13.47 38.17c-3.18 8.97-10.87 15.41-19.96 17.24v32.59H16v-34.3C6.6 459.1 0 449.72 0 438.8v-2.35c0-2.75.42-5.49 1.26-8.1L56 256.31v-9.96h.08c.4-14.03 10.54-25.65 23.92-28.23v-48.57h48v48.57c13.38 2.59 23.53 14.2 23.92 28.23h.08v9.96l34.12 107.21a55.858 55.858 0 0141.08-30.61l52.22-8.71c-21.79-12.86-38.03-34.03-44.39-59.16-19.69-2.48-35.03-19.14-35.03-39.49v-50.23c-4.76-2.77-8-7.88-8-13.77v-16c0-6.01 3.38-11.19 8.29-13.94C203.15 74.06 247.08 26.37 304 18.74v-1.19c0-8.83 7.18-16 16-16h16c8.82 0 16 7.17 16 16v1.19c56.92 7.63 100.85 55.32 103.71 112.88 4.91 2.74 8.29 7.92 8.29 13.93v16c0 5.89-3.24 11-8 13.77v50.23c0 20.35-15.34 37.01-35.03 39.49-6.36 25.13-22.6 46.31-44.39 59.16l52.22 8.71c20.51 3.41 37.34 17.79 43.92 37.52l26.38 79.12H205.7a26.85 26.85 0 01-13.7 13.7zm97.15-79.87l-8 24 26.16 26.17h2.79l-18.96-88.49c-.84-2.01-1.54-4.09-2.05-6.24l-4.47.74-11.23 28.06 15.76 15.76zm77.76-44.57c-.51 2.15-1.21 4.23-2.05 6.24l-18.96 88.5h2.79l26.15-26.17-8-24 15.77-15.77-11.23-28.05-4.47-.75zm-22.92 27.25c-4.91 2.17-10.28 3.49-15.99 3.49-5.71 0-11.08-1.32-16-3.49l14.46 67.49h3.08l14.45-67.49zm6.72-31.34c-7.29 1.78-14.87 2.83-22.71 2.83-7.84 0-15.42-1.05-22.71-2.83l1.08 5.04c3.85 8.12 12.06 13.79 21.63 13.79 9.57 0 17.78-5.67 21.63-13.79l1.08-5.04zm75.47 13.98l-36.33-6.06 11.53 28.84-16.23 16.24 8 24-21.84 21.83h50.93l-6.08-30.43 15.69-3.14 6.71 33.57h38.34l-19.35-58.06c-4.7-14.09-16.72-24.36-31.37-26.79zM424 177.55v8.81c5.94 1.21 11.33 3.86 16 7.4v-16.21h-16zm16 48c0-10.42-6.71-19.22-16-22.53v38.53c0 2.24-.18 4.43-.34 6.63 9.47-3.22 16.34-12.1 16.34-22.63zM393.7 51.23l-15.92 78.32H408v16H208v16h240v-16h-24v-16h15.61c-2.51-32.44-20.1-60.96-45.91-78.32zM216 177.55v16.2c4.67-3.54 10.06-6.18 16-7.39v-8.81h-16zm103.98-160l.02 80h16v-80h-16.02zm-15.98 80V34.83a102.23 102.23 0 00-27.04 8.16l17.58 86.56h66.92l17.59-86.56c-8.47-3.89-17.53-6.68-27.05-8.16v62.72c0 8.82-7.18 16-16 16h-16c-8.82 0-16-7.18-16-16zm-87.61 32h61.82L262.3 51.23c-25.81 17.36-43.4 45.88-45.91 78.32zm15.95 118.63c-.16-2.2-.34-4.39-.34-6.63v-38.53c-9.29 3.31-16 12.11-16 22.53 0 10.53 6.87 19.41 16.34 22.63zM328 321.55c44.11 0 80-35.89 80-80v-64H248v64c0 44.11 35.89 80 80 80zm-133.91 67.03l12.65 39.78c.54 1.68.84 3.43 1.04 5.19h9.66l6.72-33.58 15.69 3.15-6.09 30.43h50.93l-21.84-21.85 8-24-16.23-16.23 11.53-28.84-36.33 6.05a39.953 39.953 0 00-31.37 26.81l-4.36 13.09zM96 185.55v32h16v-32H96zm-24 61.62c0 1 .11 1.99.32 2.95l11.73 52.76c1.4 6.28 6.86 10.67 13.3 10.67h13.3c6.44 0 11.9-4.39 13.3-10.67l11.72-52.75c.22-.97.33-1.96.33-2.96 0-7.51-6.11-13.62-13.62-13.62H85.62c-7.51 0-13.62 6.11-13.62 13.62zm21.77 82.07l-11.4 32.31h43.26l-11.4-32.31c-1.18.15-2.37.31-3.58.31h-13.3c-1.21 0-2.4-.16-3.58-.31zm-14.83-6.06c-5.18-4.1-8.98-9.94-10.52-16.83l-4.75-21.39L16.5 433.2c-.33 1.05-.5 2.14-.5 3.25v2.35c0 5.92 4.82 10.75 10.74 10.75 4.55 0 8.62-2.88 10.13-7.17l42.07-119.2zm58 70.37l-5.65-16H76.73l-5.65 16h65.86zm55.06 42.9c0-1.1-.17-2.2-.5-3.25l-47.17-148.24-4.75 21.38c-1.55 6.9-5.35 12.74-10.52 16.83l42.07 119.21a10.75 10.75 0 0010.13 7.17c5.92 0 10.74-4.83 10.74-10.75v-2.35z"/></svg><svg viewBox="-1 -1 417 443" width="152" height="161" id="cramaze-minds-logo" xmlns="http://www.w3.org/2000/svg"><defs><clipPath clipPathUnits="userSpaceOnUse" id="ecp1"><path d="M-210-217h818v818h-818z"/></clipPath></defs><style>.eshp3{fill:#000}.eshp4{fill:#fc7138}.eshp5{fill:#ffde59}.eshp6{fill:#ffbd59}</style><g clip-path="url(#ecp1)"><path d="M-210 600.95h818.03v-818.03H-210v818.03zm16.5-801.53h786v786h-786v-786z" fill="#fff"/><path d="M199.07 140.92c40.48 0 73.27 32.8 73.27 73.27s-32.79 73.27-73.27 73.27c-40.47 0-73.27-32.8-73.27-73.27s32.8-73.27 73.27-73.27z" opacity=".239" fill="#c7d0d8"/><path fill-rule="evenodd" d="M199.98 209.55c-.47-1.66-.24-5.71 1.43-6.66 2.63-1.43 3.58 2.38 3.35 4.28-.48 1.19-1.44 2.62-3.11 2.38h-1.67zm-40.09-7.14c9.79 2.14 2.15 9.76-3.81 11.19-3.38.81-9.61-.07-8.98-4.7.18-1.32.7-2.43 1.45-3.34 2.53-3.07 7.69-3.94 11.34-3.15zm-3.1 28.8c-.71 1.91-3.58 5.48-5.97 5.48-3.34 0-2.86-2.86-2.86-5.24.29-2.87.8-8.49 4.48-9.05 1.4-.22 2.46.26 3.22 1.11 1.69 1.9 1.9 5.65 1.13 7.7zm69.98 31.18c-1.35-1.75-.28-4.5.81-6.11 1.31-1.94 3.37-3.38 5.81-2.93 2.15.48 3.58 3.09 3.1 5.47-.51 2.82-4.42 5.53-7.22 4.91-.68-.15-1.39-.35-1.97-.8-.2-.17-.38-.35-.53-.54zm-16.05 2.23c0-1.61.8-2.55 1.91-3.66 1.43-1.42 4.06-1.42 5.73-.95 4.77 1.19 5.01 8.1-.24 8.34-1.97.09-4.38-.09-6.05-1.25-.82-.57-1.34-1.38-1.35-2.4v-.08zm-61.15-8.98c-.7-1.33-.74-2.94.08-4.31.77-1.28 2.23-2.39 3.8-2.03 2.63.95 5.25 7.86 2.63 9.28-1.66.74-3.98-.39-5.26-1.42-.53-.42-.95-.94-1.25-1.52zm45.64-25.85v-.01.01zm-2.15-11.19c4.06-.95 7.64 5.71 6.21 9.04-.72 1.43-2.39 3.57-4.3 2.38l.24-.23c-1.68 1.65-8.82-9.76-2.15-11.19zm3.7 29.83c1.18-.18 2.34.84 2.51 2.3.47 2.14-2.15 4.28-3.82 2.38-1.38-1.38-.65-3.08.59-4.16l-.83.59c.45-.66.98-1.01 1.52-1.1l.15-.09-.12.08zm-.03.01c-.24.15-.47.32-.69.51l.72-.52c-.01 0-.02.01-.03.01zm3.73-14.14c-.29.16-.58.35-.86.55l.86-.55zm-.86.55l-1.76 1.12c2.14-3.57 5.96-1.43 6.2 1.91.72 3.33-3.34 6.66-5.97 4.04-2.55-2.33-.75-5.41 1.53-7.07zm29.97-12.92c-.02.09-.04.17-.06.27.04.2.13.43.3.68l-.24-.95zm-.06.27c-.16-.98.99-1.5 1.97-1.7 2.63-.23 3.82 4.05 1.2 4.76-1.57.45-3.35-1.63-3.17-3.06zm-5.01 6.8c1-1.04 2.88-.51 4.12.55 3.82 3.33-.48 10.23-4.54 7.85-2.62-1.67-2.15-7.14.48-8.57l-.06.17zm-.66 1.74l.66-1.74c-.35.37-.59.93-.66 1.74zm19.1-15.24c-4.06 2.86-5.73-11.9-1.67-14.99 6.92-5 14.79 5.47 13.84 11.66-.72 6.19-3.34 9.28-9.55 6.9l-2.62-3.57zm-11.7-18.08c5.73.23 6.69 8.32 2.39 10.94-3.34 2.15-7.16 2.15-10.26-.47l1.91.71c-2.86-3.57 1.43-11.42 5.96-11.18zm-12.29-1.9c.1.17.22.33.36.47l-.36-.47zm-.12-6.2c.96-3.81 3.35-4.99 7.16-4.04 6.69 1.66 6.21 8.56.24 10.94-3.1 1.43-7.16 1.43-8.59-2.38l1.31 1.68c-.98-1.6-.54-4.48-.12-6.2zm-12.17 5.48c-5.01.23-5.96-6.19-4.05-9.76 4.29-7.86 14.08-2.62 13.6 5.23-.48 3.81-3.58 5.96-7.4 5.24l-2.15-.71zm32.7 49.26c-1.43-1.66-1.91-6.18.71-7.13 3.34-1.67 4.06 3.09 3.58 5.47-.71 1.9-2.62 2.38-4.53.95l.24.71zm-59.18-26.18c-.48-1.66.47-5.47 2.38-4.28 1.91 1.19 1.2 5.71-.48 6.19-1.66.47-3.58-1.43-2.62-3.33l.72 1.42zm-.96-14.75c.72-2.62 1.91-3.81 4.06-2.62 2.86 1.66 2.86 5.47 0 6.9-3.58 2.14-3.82-2.62-5.01-5l.95.72zm-15.51 19.04c-.02.01-.05.02-.07.04-.3.3-.53.75-.64 1.39l.71-1.43zm-.07.04c.93-.96 2.56-.47 3.65.44 3.34 2.85-.48 8.8-4.06 6.66-2.12-1.18-1.91-5.85.41-7.1zm22.5 43.28c3.34.47 11.7 5.47 5.73 8.33-2.2 1.05-4.92 1.86-7.36 1.25-1.13-.28-2.12-.89-2.81-1.83-1.14-1.54-1.27-3.25-.71-4.66.74-1.9 2.7-3.28 5.15-3.09zm-20.72.41c-1.65-1.54-2.56-3.69-.8-5.62 1.47-1.62 3.8-2.99 6.01-3.12 4.77-.72 13.13 4.99 7.4 9.28-2.35 2-6.29 2.11-9.14 1.41-1.14-.28-2.45-1-3.47-1.95zm-25.33-28.02l.25.42c.49-1.15 1.67-1.61 3.09-1.61 2.86.24 5.01 6.42 5.97 8.57-.48.47-.96 1.19-1.92 1.42-3.1.48-6.44-6.66-7.39-8.8zm.25.42c0 .02-.01.04-.02.05.25.24.25.48.48.72l-.46-.77zm38.4.53c2.87-.72 3.58 3.33 1.44 4.52-1.2-1.19-1.91-3.33-.24-3.81l-1.2-.71zm-10.02-5c1.43-1.9 3.1-1.9 4.06 0 1.19 2.38.95 7.38-3.1 5.95-2.39-.71-2.87-5.24-.72-6.42l-.24.47zm-14.79 5.95c.48-.95 0-.24 1.19.24 2.15 1.19 2.15 2.85.48 3.09-1.67.72-4.78-1.66-2.86-2.62l1.19-.71zm-8.36-10.71c-.95 7.38-8.35 4.05-9.54-1.43-.6-2.75 1.77-5.41 4.29-6.13 2.1-.6 3.46.23 4.28 1.62.99 1.68 1.2 4.17.97 5.94zm-10.97-31.66l-.08.3c.02-.09.05-.19.08-.3zm-.96 3.57c.08-.43.18-.81.31-1.14l-.31 1.14zm8.12-.71c-1.29 4.71-7.41 3.26-7.41-1.25 1.65-2.52 5.2-.55 7.41 1.25zm-7.41-1.25c-.15.24-.29.51-.4.82l.57-2.13c-.12.46-.17.9-.17 1.31zm4.93 10.65c.42-.15.87-.21 1.34-.16 1.53.17 2.84 1.35 3.52 2.66 2.63 5-5.49 8.57-7.63 4.05-.64-1.35-.65-2.93.15-4.23.61-1 1.52-1.95 2.62-2.32zm6.77-16.78v2.38c1.2-2.38 1.67-9.99 5.97-7.62 3.58 2.15.95 11.43-2.15 13.33-5.73 3.34-7.88-6.9-3.82-8.09zm-4.42-7.82c1.2-1.41 2.83-1.82 3.71.44.95 2.86-2.39 9.52-5.25 6.19-1.68-1.66.71-7.37 2.38-8.09l-.84 1.46zm-1.06 1.87l1.06-1.87a6.32 6.32 0 00-1.06 1.87zm14.79-6.9c-.35-.04-.72.04-1.07.21l1.07-.21zm-1.07.21l-.12.03c1.43-1.91 5.01-3.1 5.72-.24.96 2.85-5.72 6.66-7.64 5.24-1.39-1 .22-4.16 2.04-5.03zm5.37-4.5l.47-1.9c-1.91 2.14-5.96 4.52-8.83 2.62-5.01-3.57 3.34-10.71 7.64-10.24 4.77 1.19 5.49 7.86.72 9.52zm8.82-8.33c-.95-2.61 1.2-6.42 2.63-8.33 4.53-5.71 8.83.24 5.49 5-1.44 2.14-11.46 7.14-9.07 1.43l.95 1.9zm10.02-2.61l1.74 3.02c-1.35-2.63.48-6.68 2.32-8.73 4.54-5 9.55-2.15 5.25 3.56-1.91 2.86-9.31 9.76-9.31 2.15zm1.74 3.02c.05.11.11.21.18.31l-.18-.31zm15.44-10.88c.05.12.1.24.16.35-.07.26-.13.55-.16.84v-1.19zm.16.35c.51-1.87 2.03-2.97 3.9-2.97 7.45.7-1.67 7.29-3.9 2.97zm9.39-.35l-.03.24c.01-.09.02-.17.03-.24zm-.03.24c-.04.39-.07.9-.07 1.48-.04.06-.09.12-.14.19l.21-1.67zm7.43 1.43c.95 2.62-1.67 7.61-5.25 5.95-1.8-.72-2.24-3.74-2.25-5.9 2.39-3.21 5.86-4.72 7.5-.05zm3.58 2.38c1.91-2.86 5.97-3.81 8.59-.72 2.86 3.57-.96 9.52-5.25 7.86-3.34-.95-4.53-6.9-2.62-9.28l-.72 2.14zm13.12 2.38c.03.03.05.06.07.08-.04.2-.07.41-.07.63v-.71zm.07.08c.54-2.56 4.39-3.11 6.38-2.22 2.39 1.42 3.82 5.23 1.19 6.42-3.06 1.17-6.12-2.28-7.57-4.2zm18.55 21.1c3.1-1.9 6.92.95 3.82 3.57-2.63 2.14-5.49 0-4.3-3.09l.48-.48zm-8.35-8.33l2.86.48c-2.63-1.19-1.67-5.48.71-6.43 4.54-2.38 13.84 6.43 9.55 10.71-3.34 3.34-11.21-1.9-13.12-4.76zm16.7 12.62c-.32.19-.64.4-.95.63l.95-.63zm-.95.63l-2.63 1.75c2.86-4.76 8.12-1.91 8.83 2.61.71 4.76-4.77 9.52-8.59 5.48-3.48-3.25-.82-7.49 2.39-9.84zm3.81 14.36v.95c2.15-2.62 5.73.48 6.21 2.86.95 2.86-2.39 7.14-5.49 5.24-2.87-1.67-2.15-7.15-.72-9.05zm-1.19 12.38c2.39-1.91 5.49 1.19 5.96 3.57.72 2.86-2.14 8.33-5.72 5.95-2.15-1.67-2.63-8.81 0-10.47l-.24.95zm-4.06 12.38c2.39-4.05 6.45 1.18 5.97 4.04-1.91 8.57-16.47 0-6.21-5.71l.24 1.67zm-5.01 9.28c4.06-2.38 5.97 4.04 5.01 6.9-1.19 3.33-10.02 9.04-10.97 3.33-.72-4.28 3.34-8.81 6.92-10.47l-.96.24zm-30.78 10.71c5.01-2.15 10.26 5.95 5.01 8.8-1.91 1.19-5.73 1.67-7.4-.23-1.19-1.36-1.34-3.24-.78-4.92.52-1.59 1.67-3.01 3.17-3.65zm-30.55-79.26c.35.65.79 1.15 1.3 1.53.25.06.53.11.85.13l-2.15-1.66zm1.3 1.53c-4.04-.99.73-6.14 2.52-7.48 2.39-1.67 5.97-3.81 8.59-2.14 2.87 1.42 3.1 4.28 1.2 6.42-2.08 2.7-8.86 5.75-12.31 3.2zm-14.9 19.41c-.06.05-.12.09-.18.14-.02.03-.04.07-.06.1l.24-.24zm-.18.14c.78-1.31 2.87-5.11 4.95-4.18 2.63.71.24 4.28-1.19 5.23-1.62.93-5.73.5-3.76-1.05zm-11.99 9.86c-7.39.71-7.16-11.42-1.67-13.57 3.58-1.46 7.69 1.74 8.27 5.28.19 1.12-.04 2.33-.55 3.47-1.11 2.5-3.58 4.66-6.05 4.82zm11.2-13.66c-.72.11-1.5 0-2.55-.34-1.43-.46-2.08-1.63-2.68-2.9-2.39-5 4.53-19.04 10.97-12.38 2.73 2.83 2.09 7.05.31 10.18-.94 1.66-2.21 3.09-3.72 4.26-.87.67-1.56 1.05-2.33 1.18zm2.16 12.95l-1.43-1.67c.96 1.67.72 3.57-.71 5-3.34 2.85-7.4-.95-4.3-4.05 1.91-1.9 5.49-2.14 6.44.72zm18.9-9.74c.21-.53.48-1.22.61-1.53-1.27 3.05-5.24 6.22-8.53 3.65-6.44-4.76.72-17.14 6.68-18.57 9.16-1.74 4.57 11.02 1.71 15.97.16-.25.31-.51.48-.75m-.48.75c-.27.46-.52.86-.75 1.17.27-.36.51-.77.75-1.17zm.2-1.21s-.02.06-.06.16c.02-.05.04-.1.06-.16zm15.04-20.94c4.53 0 13.84 7.38 9.06 12.13-2.62 3.1-6.68-.23-10.26 0h-1.67c-8.83-1.18-4.29-12.37 2.87-12.13zm20.04 16.99c-.32-.12-.63-.3-.95-.57l.95.57c-4.41-2.73-7.33-9.69-3.82-13.9 2.87-3.33 5.97-1.43 8.36.95 2.86 3.1 3.82 5 1.43 8.81-1.27 1.69-3.49 5.07-5.97 4.14l.24.15-.24-.15zm0 0zm7.64-2.24c5.49-.95 10.5 8.1 8.59 12.86-.96 1.9-3.34 4.52-5.73 3.33l.24-.72c-2.62 2.62-12.17-13.33-3.1-15.47zm7.16 39.51c4.06-.23 5.72 5.24 3.34 8.1-1.43 2.14-4.54 2.38-6.44.95l-.48-2.62c-2.15-1.9.95-6.43 3.58-6.43z" fill="#278f03"/><path class="eshp3" d="M205.47 307.61c1-15.18-5.01-34.27-16.46-48.79a45.057 45.057 0 01-4.06-5.47c-6.45-4.28-15.27-5.71-27.92-1.19 3.34-2.62 7.16-4.52 11.22-5.72-5.49-3.57-8.36-9.28-8.59-14.75.95 8.09 6.44 12.14 11.93 14.28 3.34-.47 6.91-.24 10.26.95-2.63-6.19-4.3-12.85-5.25-19.52-3.34-6.18-10.26-12.37-21.24-10.47 6.68-1.66 14.79 0 20.76 6.19-.72-7.38-.24-14.28.72-20.23-1.68 16.9 1.91 30.47 7.87 40.22 0-.48 0-1.19-.24-1.9-.95-8.81.72-18.09 3.82-26.42 1.67-6.43 1.19-14.28-6.2-19.76 4.29 2.86 7.87 7.62 8.83 13.81 2.86-5.95 6.44-11.19 10.02-15.23-13.84 18.09-14.32 38.08-11.22 50.45.7 2.61 2.04 4.99 3.36 7.33 1.13 2.01 2.26 4.07 4.85 4.33 3.91.39 4.72-3.41 6.11-6.18 3.82-10 4.77-25.23-5.97-35.7 6.69 4.76 11.7 12.85 12.41 22.61 3.82-9.28 6.21-20.23-2.38-33.32 2.38 2.85 4.06 6.18 5.48 9.28 1.68-5.71 5.73-10 10.27-12.14-7.4 4.05-9.07 10.95-8.59 16.9.71 3.33 1.19 6.66.95 10 6.44-7.14 15.03-10.24 22.91-9.76-12.89.47-20.04 9.04-23.86 17.61a41.26 41.26 0 01-2.15 7.14c-.71 1.43-1.19 2.86-1.67 4.04 2.38-2.14 5.01-3.09 9.54-4.04 5.49-.95 13.13-3.33 15.75-13.33-.24 6.19-5.01 12.38-10.5 15.23 5.97 1.67 10.27 5.96 12.41 10.72-4.05-7.38-10.5-9.28-16.46-9.05h-.24c-.33.07-.66.14-.99.22-5.62 1.41-9.51 5.04-12 10.17-2.98 6.14.18 11.39 3.14 16.86 5.49 10.15 7.75 23.9 7.94 34.63.06 3.63-14.79 3.62-14.56 0z"/><path fill-rule="evenodd" class="eshp4" d="M203.57 362.34c-89.86 0-162.9-73.04-162.9-162.89 0-89.86 73.04-162.9 162.9-162.9 89.85 0 162.9 73.04 162.9 162.9 0 89.85-73.05 162.89-162.9 162.89zm0-316.02c-84.45 0-153.13 68.68-153.13 153.13 0 84.44 68.75 153.12 153.13 153.12 84.45 0 153.12-68.74 153.12-153.12 0-84.45-68.67-153.13-153.12-153.13z"/><path fill-rule="evenodd" class="eshp4" d="M203.57 316.73c-64.7 0-117.29-52.58-117.29-117.28 0-64.71 52.59-117.23 117.29-117.23s117.22 52.59 117.22 117.23c.07 64.63-52.52 117.28-117.22 117.28zm0-225.78c-59.82 0-108.43 48.68-108.43 108.43 0 59.75 48.61 108.49 108.43 108.49 59.82 0 108.42-48.67 108.42-108.42 0-59.76-48.6-108.5-108.42-108.5z"/><path fill-rule="evenodd" class="eshp5" d="M223.5 382.96c-89.85 0-162.9-73.04-162.9-162.89 0-89.86 73.05-162.9 162.9-162.9 89.86 0 162.9 73.04 162.9 162.9 0 89.85-73.04 162.89-162.9 162.89zm0-316.02c-84.45 0-153.12 68.68-153.12 153.13 0 84.44 68.74 153.12 153.12 153.12 84.45 0 153.13-68.74 153.13-153.12 0-84.45-68.68-153.13-153.13-153.13z"/><path fill-rule="evenodd" class="eshp5" d="M223.5 337.35c-64.7 0-117.29-52.58-117.29-117.28 0-64.71 52.59-117.23 117.29-117.23 64.71 0 117.22 52.59 117.22 117.23.07 64.63-52.51 117.28-117.22 117.28zm0-225.77c-59.81 0-108.42 48.67-108.42 108.42s48.61 108.49 108.42 108.49c59.82 0 108.43-48.67 108.43-108.42 0-59.76-48.61-108.49-108.43-108.49z"/><path fill-rule="evenodd" class="eshp6" d="M181.66 383.14c-86.11 0-156.11-70-156.11-156.11 0-86.12 70-156.12 156.11-156.12 86.11 0 156.11 70 156.11 156.12 0 86.11-70 156.11-156.11 156.11zm0-302.86c-80.93 0-146.74 65.82-146.74 146.75 0 80.92 65.87 146.74 146.74 146.74 80.93 0 146.74-65.88 146.74-146.74 0-80.93-65.81-146.75-146.74-146.75z"/><path fill-rule="evenodd" class="eshp6" d="M181.66 339.43c-62.01 0-112.4-50.4-112.4-112.4 0-62.01 50.39-112.34 112.4-112.34 62.01 0 112.34 50.39 112.34 112.34.06 61.94-50.33 112.4-112.34 112.4zm0-216.38c-57.32 0-103.91 46.65-103.91 103.91s46.59 103.97 103.91 103.97c57.32 0 103.91-46.64 103.91-103.9 0-57.27-46.59-103.98-103.91-103.98z"/><path class="eshp3" d="M-175.5-217.08h1.5v16.5h-1.5v-16.5zm-34.5 34.5h16.5v1.5H-210v-1.5zm784.5-34.5h1.5v16.5h-1.5v-16.5zm18 34.5h18v1.5h-18v-1.5zm-768 768h1.5v18h-1.5v-18zm-34.5-18h16.5v1.5H-210v-1.5zm784.5 18h1.5v18h-1.5v-18zm18-18h18v1.5h-18v-1.5z"/></g></svg><svg viewBox="-1 -1 66 66" width="65" height="65" id="data_recovery-icon" x="296.4" y="132" xmlns="http://www.w3.org/2000/svg"><style>.fshp0{fill:#f0bc5e}.fshp1{fill:#000}</style><g id="fLayer"><g id="fLayer"><path id="fLayer" class="fshp0" d="M2 6h14v12H2V6z"/></g><g id="fLayer"><path id="fLayer" class="fshp0" d="M18 46H6a2 2 0 00-2 2v10h16V48a2 2 0 00-2-2z"/></g><g id="fLayer"><path id="fLayer" class="fshp0" d="M62 12H44V4c0-1.1.9-2 2-2h14c1.1 0 2 .9 2 2v8z"/></g><g id="fLayer"><path id="fLayer" class="fshp0" d="M51 49h8v10h-8V49z"/></g><g id="fLayer"><path id="fLayer" fill-rule="evenodd" class="fshp1" d="M1 24V4c0-1.65 1.35-3 3-3h10c1.65 0 3 1.35 3 3v20c0 1.65-1.35 3-3 3h-4v3h7.69v2H8v-5H4c-1.65 0-3-1.35-3-3zm14 0v-5H3v5c0 .55.45 1 1 1h10c.55 0 1-.45 1-1zm0-7V7H3v10h12zM3 4v1h12V4c0-.55-.45-1-1-1H4c-.55 0-1 .45-1 1z"/><path id="fLayer" class="fshp1" d="M7 21h4v2H7v-2z"/><path id="fLayer" fill-rule="evenodd" class="fshp1" d="M63 4v10c0 1.65-1.35 3-3 3h-3v2h2v2h-5v12h-6.53v-2H52V21h-5v-2h2v-2h-3c-1.65 0-3-1.35-3-3V4c0-1.65 1.35-3 3-3h14c1.65 0 3 1.35 3 3zM45 4v7h16V4c0-.55-.45-1-1-1H46c-.55 0-1 .45-1 1zm10 13h-4v2h4v-2zm6-3v-1H45v1c0 .55.45 1 1 1h14c.55 0 1-.45 1-1zM21 57h2v3c0 1.65-1.35 3-3 3H4c-1.65 0-3-1.35-3-3v-3h2v-9c0-1.65 1.35-3 3-3h4V34h5v2h-3v9h6c1.65 0 3 1.35 3 3v9zM5 57h14v-9c0-.55-.45-1-1-1H6c-.55 0-1 .45-1 1v9zm16 2H3v1c0 .55.45 1 1 1h16c.55 0 1-.45 1-1v-1z"/><path id="fLayer" class="fshp1" d="M51 49h2v2h-2v-2zm6 8h2v2h-2v-2zm-2-8h4v2h-4v-2zm-4 8h4v2h-4v-2z"/><path id="fLayer" fill-rule="evenodd" class="fshp1" d="M56 45h7v18H47V45h7v-8h-5v-2h7v10zm5 16v-6H49v6h12zm0-14H49v6h12v-6z"/></g><g id="fLayer"><g id="fLayer"><path id="fLayer" class="fshp0" d="M43 43H21c-3.86 0-7-3.14-7-7 0-3.32 2.33-6.16 5.52-6.84C20.69 26.09 23.68 24 27 24c1.13 0 2.24.24 3.26.7 1.46-2.28 4-3.7 6.74-3.7 4.41 0 8 3.59 8 8 0 .1 0 .2-.01.3 2.92.87 5.01 3.6 5.01 6.7 0 3.86-3.14 7-7 7z"/></g></g></g></svg><svg viewBox="-1 -1 66 66" width="65" height="65" id="digi_market-icon" x="296.4" y="197" xmlns="http://www.w3.org/2000/svg"><style>.gshp0{fill:#f0bc5e}.gshp1{fill:#000}</style><g id="gLayer"><g id="gLayer"><path id="gLayer" class="gshp0" d="M5 52h54c1.66 0 3-1.34 3-3v-6H2v6c0 1.66 1.34 3 3 3z"/></g><g id="gLayer"><path id="gLayer" class="gshp0" d="M7 25h22v13H7V25z"/></g><g id="gLayer"><path id="gLayer" class="gshp1" d="M55 47h2v2h-2v-2zm-4 0h2v2h-2v-2zm-4 0h2v2h-2v-2z"/><path id="gLayer" fill-rule="evenodd" class="gshp1" d="M63 11v38c0 2.21-1.79 4-4 4H43.19c.55 1.61 2.22 3.24 3.16 4H49c1.1 0 2 .9 2 2v2c0 1.1-.9 2-2 2H15c-1.1 0-2-.9-2-2v-2c0-1.1.9-2 2-2h2.65c.93-.76 2.61-2.39 3.16-4H5c-2.21 0-4-1.79-4-4V11c0-2.21 1.79-4 4-4h2V1h22v6h30c2.21 0 4 1.79 4 4zM9 21h18V7H9v14zM9 3v2h18V3H9zm40 56H15v2h34v-2zm-7.88-6H22.88c-.33 1.54-1.34 2.95-2.31 4h22.86c-.97-1.05-1.98-2.46-2.31-4zM61 11c0-1.1-.9-2-2-2H29v14H7V9H5c-1.1 0-2 .9-2 2v38c0 1.1.9 2 2 2h54c1.1 0 2-.9 2-2V11z"/><path id="gLayer" class="gshp1" d="M7 25h6v2H7v-2zm8 0h14v2H15v-2zm-8 8h6v2H7v-2zm8 0h6v2h-6v-2zm8 0h6v2h-6v-2zM7 29h22v2H7v-2zm0 8h22v2H7v-2z"/><path id="gLayer" fill-rule="evenodd" class="gshp1" d="M55 16.1c2.28.47 4 2.49 4 4.9s-1.72 4.43-4 4.9V29c0 1.1-.9 2-2 2h-2.76c-.31 0-.62-.07-.9-.21A16.89 16.89 0 0043 29.05V35c0 2.21-1.79 4-4 4s-4-1.79-4-4v-7.08c-2.39-1.39-4-3.97-4-6.92 0-4.41 3.59-8 8-8h2.76c2.62 0 5.24-.62 7.58-1.79.28-.14.59-.21.9-.21H53c1.1 0 2 .9 2 2v3.1zM39 15v12h2.76c2.48 0 4.95.5 7.24 1.44V13.56A19.12 19.12 0 0141.76 15H39zm-2 11.65v-11.3c-2.33.83-4 3.04-4 5.65 0 2.61 1.67 4.82 4 5.65zM41 35v-6h-2c-.69 0-1.36-.1-2-.26V35c0 1.1.9 2 2 2s2-.9 2-2zm12-22h-2v16h2V13zm4 8c0-1.3-.84-2.4-2-2.82v5.64c1.16-.42 2-1.52 2-2.82z"/><path id="gLayer" class="gshp1" d="M23 9h-2v8h-2v-6h-2v6h-2v-4h-2v4h-2v2h14v-2h-2V9z"/></g></g></svg><svg viewBox="-1 -1 66 66" width="65" height="65" id="digital_card-icon" x="65" y="288.33" xmlns="http://www.w3.org/2000/svg"><style>.hshp0{fill:#f0bc5e}.hshp1{fill:#000}</style><g id="hLayer"><g id="hLayer"><path id="hLayer" class="hshp0" d="M48 5l3 9h7l-6 4 2 7-6-4.25L42 25l2-7-6-4h7l3-9z"/></g><g id="hLayer"><path id="hLayer" class="hshp0" d="M35 35v18h10v-5h10V35H35z"/></g><g id="hLayer"><path id="hLayer" fill-rule="evenodd" class="hshp1" d="M59 26.16V54c0 1.65-1.35 3-3 3H39v3.59a2.411 2.411 0 01-4.12 1.7L29.59 57H4c-1.65 0-3-1.35-3-3V14c0-1.65 1.35-3 3-3h29.88C35.94 5.18 41.48 1 48 1c8.27 0 15 6.73 15 15 0 3.92-1.53 7.49-4 10.16zM35 16c0 7.17 5.83 13 13 13s13-5.83 13-13S55.17 3 48 3 35 8.83 35 16zm22 38V27.97C54.49 29.86 51.38 31 48 31c-8.27 0-15-6.73-15-15 0-1.03.1-2.03.3-3H4c-.55 0-1 .45-1 1v40c0 .55.45 1 1 1h26.41l5.88 5.88c.24.24.71.04.71-.29V55h19c.55 0 1-.45 1-1z"/><path id="hLayer" fill-rule="evenodd" class="hshp1" d="M26.47 40.57c1.99.33 3.76 1.4 4.97 3.01A7.863 7.863 0 0133 48.27V53H5v-4.73c0-1.68.56-3.34 1.56-4.69a7.802 7.802 0 014.97-3.02l2.71-.45.46-1.38A8.015 8.015 0 0111.26 34H11c-2.21 0-4-1.79-4-4 0-.93.33-1.78.87-2.46C7.57 26.59 7 24.61 7 23c0-2.03 1.52-3.71 3.47-3.97l.51-.67a8.426 8.426 0 019.59-2.86l6.58 2.4a5.878 5.878 0 013.68 6.92l-.73 2.69c.56.68.9 1.54.9 2.49 0 2.21-1.79 4-4 4h-.26a8.015 8.015 0 01-3.44 4.73l.46 1.38 2.71.46zm-3.21 1.49L20.67 44l1.97 1.48 1.61-3.26-.99-.16zM29 30c0-1.1-.9-2-2-2v4c1.1 0 2-.9 2-2zM9 23c0 1.04.31 2.35.58 3.27.44-.17.92-.27 1.42-.27h2.76c2.47 0 4.79-.96 6.53-2.71l.71-.7.71.7c1.2 1.2 2.68 2.12 4.29 2.65l.16.06H27c.48 0 .94.1 1.37.26l.52-1.94a3.865 3.865 0 00-2.43-4.54l-6.58-2.4c-.7-.25-1.43-.38-2.18-.38-2 0-3.92.96-5.12 2.56L11.5 21H11c-1.1 0-2 .9-2 2zm2 9v-4c-1.1 0-2 .9-2 2s.9 2 2 2zm8 6c3.31 0 6-2.69 6-6v-4.29c-1.46-.53-2.82-1.34-4-2.35A11.165 11.165 0 0113.76 28H13v4c0 3.31 2.69 6 6 6zm-2.48 1.6l-.34 1.03L19 42.75l2.82-2.12-.34-1.03c-.78.26-1.61.4-2.48.4-.87 0-1.7-.14-2.48-.4zm-2.77 2.62l1.61 3.26L17.33 44l-2.59-1.94-.99.16zM31 48.27c0-1.25-.41-2.49-1.16-3.49a5.847 5.847 0 00-3.54-2.2l-2.94 5.94L19 45.25l-4.36 3.27-2.94-5.94a5.847 5.847 0 00-3.54 2.2c-.75 1-1.16 2.24-1.16 3.49V51h24v-2.73z"/><path id="hLayer" class="hshp1" d="M35 47h20v2H35v-2zm0-8h20v2H35v-2zm0-4h6v2h-6v-2zm8 0h12v2H43v-2zm6 8h6v2h-6v-2zm-14 0h12v2H35v-2zm0 8h2v2h-2v-2zm4 0h2v2h-2v-2zm4 0h2v2h-2v-2z"/></g></g></svg><svg id="facebook" data-name="Layer 1" width="23.23" height="44.01" viewBox="-1 -1 23.23 44.01" x="362.4" y="153.07" xmlns="http://www.w3.org/2000/svg"><path d="M21.23.31V7H17.4a3.55 3.55 0 00-2.85.91 4.26 4.26 0 00-.74 2.72v4.77H21l-1 7.47h-6.19V42H6.27V22.85H0v-7.47h6.27V9.85q0-4.69 2.55-7.28A9 9 0 0115.63 0a39.57 39.57 0 015.6.31z" fill="#fff"/></svg><svg id="fire" data-name="Layer 1" width="58" height="66" viewBox="-1 -1 58 66" x="112.67" y="161" xmlns="http://www.w3.org/2000/svg"><path d="M16 0C24 16 0 24 0 40s16 24 16 24C8.16 48.16 32 40 32 24S16 0 16 0zm24 24c8 16-16 24-16 40h24c3.2 0 8-4 8-16 0-16-16-24-16-24z" fill="#d4953d"/></svg><svg id="globe" data-name="Layer 1" width="66" height="66" viewBox="-1 -1 66 66" x="170.67" y="161" xmlns="http://www.w3.org/2000/svg"><path d="M32 0a32 32 0 1032 32A32 32 0 0032 0zm0 8a23.75 23.75 0 017.52 1.52c-1.68 1.6-3.6 3-3.28 4.48s5.52 1 5.52 4c0 2.16-3.36 2.8-1 5.28 2.8 2.8-5.12 7.84-5.28 11.52-.24 6.64 6.72 7.76 12.24 7.76 3.36 0 4.24 1.6 4 3.52a24.07 24.07 0 01-19.76 10 22.94 22.94 0 01-8.48-1.76c1.76-3.52-2.24-10.48-6-12.72-1.84-1.84-5.76-1.12-8-2a23.49 23.49 0 01-1.52-6.72 1.42 1.42 0 011.28-.72c1.52 0 3.6 3 4.72 2.72 1.4-.32-5.96-10.48-2.52-12.48 1.6-1 4.8 3.12 3.76-1.28-1-4.08 2.88-2.24 5.28-3.28 2.08-.88 3.6-3.28 1-4.72a8.55 8.55 0 01-1.76-1.52A23.75 23.75 0 0132 8.08V8zm18.48 8.72A26.46 26.46 0 0154 22.48v.24a11.78 11.78 0 01-1.76 1.76C50 26.72 49.68 22.8 48.72 22c-1-1-4.8.16-5.28-1-.56-1.48 4-3.4 7.04-4.28z" fill="#d4953f"/></svg><svg viewBox="-1 -1 66 66" width="65" height="65" id="hr-icon" x="260" y="288.33" xmlns="http://www.w3.org/2000/svg"><style>.lshp0{fill:#f0bc5e}</style><g id="lLayer"><g id="lLayer"><path id="lLayer" class="lshp0" d="M25 52a2 2 0 110-4h14c1.1 0 2 .9 2 2s-.9 2-2 2H25z"/></g><g id="lLayer"><path id="lLayer" class="lshp0" d="M39 56H25a2 2 0 110-4h14c1.1 0 2 .9 2 2s-.9 2-2 2z"/></g><g id="lLayer"><path id="lLayer" class="lshp0" d="M32 30c-6.08 0-11-4.92-11-11S25.92 8 32 8s11 4.92 11 11-4.92 11-11 11z"/></g><g id="lLayer"><path id="lLayer" class="lshp0" d="M11 42c-4.98 0-9-4.02-9-9s4.02-9 9-9 9 4.02 9 9-4.02 9-9 9z"/></g><g id="lLayer"><path id="lLayer" class="lshp0" d="M53 42c-4.98 0-9-4.02-9-9s4.02-9 9-9 9 4.02 9 9-4.02 9-9 9z"/></g><path id="lLayer" fill-rule="evenodd" d="M53 23c5.51 0 10 4.49 10 10s-4.49 10-10 10c-3.87 0-7.23-2.22-8.89-5.44a7.568 7.568 0 00-.34 5.59c.15.46.23.93.23 1.41 0 1.2-.47 2.32-1.31 3.16l-.99.99c.19.4.3.83.3 1.29 0 .77-.3 1.47-.78 2 .48.53.78 1.23.78 2 0 1.36-.92 2.5-2.16 2.87C38.92 60.49 35.73 63 32 63c-3.76 0-6.96-2.55-7.84-6.14A2.988 2.988 0 0122 54c0-.77.3-1.47.78-2-.48-.53-.78-1.23-.78-2 0-.46.11-.89.3-1.29l-.99-.99A4.399 4.399 0 0120 44.56c0-.48.08-.95.23-1.41.61-1.83.48-3.84-.34-5.59C18.23 40.78 14.87 43 11 43 5.49 43 1 38.51 1 33s4.49-10 10-10c.79 0 1.55.1 2.29.27C13.1 22.18 13 21.09 13 20 13 9.52 21.52 1 32 1s19 8.52 19 19c0 1.09-.1 2.18-.29 3.27.74-.17 1.5-.27 2.29-.27zm-38-3c0 1.37.17 2.71.49 4.08a9.99 9.99 0 013.23 2.57l2.78-1.85c-.95-1.72-1.5-3.7-1.5-5.8 0-6.62 5.38-12 12-12s12 5.38 12 12c0 2.1-.55 4.08-1.5 5.8l2.78 1.85c.88-1.07 1.99-1.94 3.23-2.57.32-1.37.49-2.71.49-4.08 0-9.37-7.63-17-17-17-9.37 0-17 7.63-17 17zm24 29H25c-.55 0-1 .45-1 1s.45 1 1 1h14c.55 0 1-.45 1-1s-.45-1-1-1zm-10-7.61c0 1.96-.44 3.87-1.28 5.61H31V30.95c-.68-.06-1.35-.18-2-.34v10.78zM33 47h3.28A12.88 12.88 0 0135 41.39V30.61c-.65.16-1.31.28-2 .34V47zm-1-18c2.15 0 4.13-.68 5.76-1.84l-.52-2.07A5.392 5.392 0 0032 21c-2.48 0-4.64 1.68-5.24 4.09l-.52 2.07A9.905 9.905 0 0032 29zm7.44-3.35A9.904 9.904 0 0042 19c0-5.51-4.49-10-10-10s-10 4.49-10 10c0 2.56.97 4.88 2.56 6.65l.26-1.04c.54-2.18 2.02-3.9 3.93-4.84C27.69 18.85 27 17.51 27 16c0-2.76 2.24-5 5-5s5 2.24 5 5c0 1.51-.69 2.85-1.75 3.77 1.91.94 3.39 2.66 3.93 4.84l.26 1.04zM32 19c1.65 0 3-1.35 3-3s-1.35-3-3-3-3 1.35-3 3 1.35 3 3 3zM7.15 40.01a7.987 7.987 0 007.7 0l-.28-1.91A3.616 3.616 0 0011 35c-1.79 0-3.32 1.33-3.57 3.1l-.28 1.91zM19 33c0-4.41-3.59-8-8-8s-8 3.59-8 8c0 2.2.89 4.19 2.33 5.63l.11-.81a5.639 5.639 0 012.7-4.03A3.99 3.99 0 017 31c0-2.21 1.79-4 4-4s4 1.79 4 4c0 1.09-.44 2.07-1.14 2.79 1.42.85 2.45 2.3 2.69 4.03l.12.81A7.935 7.935 0 0019 33zm-8 0c1.1 0 2-.9 2-2s-.9-2-2-2-2 .9-2 2 .9 2 2 2zm11.13 10.78c-.09.26-.13.52-.13.78 0 .66.26 1.28.72 1.75l.99.99c.4-.19.83-.3 1.29-.3h.44A10.83 10.83 0 0027 41.39v-11.5c-1.72-.79-3.22-1.97-4.38-3.43l-2.79 1.86A9.956 9.956 0 0121 33c0 .7-.07 1.38-.21 2.05.23.38.45.77.66 1.14a9.62 9.62 0 01.68 7.59zM37.72 57H26.29c.85 2.37 3.1 4 5.71 4s4.86-1.63 5.72-4zM40 54c0-.55-.45-1-1-1H25c-.55 0-1 .45-1 1s.45 1 1 1h14c.55 0 1-.45 1-1zm2.56-17.81c.2-.37.42-.76.65-1.14-.14-.67-.21-1.35-.21-2.05 0-1.69.43-3.29 1.17-4.68l-2.79-1.86A11.984 11.984 0 0137 29.89v11.5c0 1.99.54 3.91 1.56 5.61H39c.46 0 .89.11 1.29.3l.99-.99c.46-.47.72-1.09.72-1.75 0-.26-.04-.53-.13-.78-.83-2.5-.58-5.27.69-7.59zm6.59 3.82a7.987 7.987 0 007.7 0l-.27-1.91A3.634 3.634 0 0053 35c-1.79 0-3.32 1.33-3.57 3.1l-.28 1.91zm9.52-1.38A7.935 7.935 0 0061 33c0-4.41-3.59-8-8-8s-8 3.59-8 8c0 2.2.89 4.19 2.33 5.64l.11-.82a5.639 5.639 0 012.7-4.03A3.99 3.99 0 0149 31c0-2.21 1.79-4 4-4s4 1.79 4 4c0 1.09-.44 2.07-1.14 2.79 1.42.85 2.45 2.3 2.69 4.03l.12.81zM53 33c1.1 0 2-.9 2-2s-.9-2-2-2-2 .9-2 2 .9 2 2 2z" fill="#000"/></g></svg><svg id="instagram" data-name="Layer 1" width="44.01" height="44.01" viewBox="-1 -1 44.01 44.01" x="362.4" y="109.06" xmlns="http://www.w3.org/2000/svg"><path d="M37.25 35.49V17.77h-3.69a11.77 11.77 0 01.57 3.58 12.12 12.12 0 01-1.75 6.36 12.76 12.76 0 01-4.76 4.59 13.13 13.13 0 01-6.56 1.7 12.78 12.78 0 01-9.19-3.71 12 12 0 01-3.83-9 11.77 11.77 0 01.49-3.56H4.68v17.76a1.63 1.63 0 001.6 1.67h29.3a1.63 1.63 0 001.17-.47 1.59 1.59 0 00.5-1.2zm-7.77-14.57A7.75 7.75 0 0027 15.14a8.28 8.28 0 00-6-2.4 8.25 8.25 0 00-5.91 2.39 7.75 7.75 0 00-2.47 5.78 7.75 7.75 0 002.47 5.79A8.25 8.25 0 0021 29.1a8.28 8.28 0 006-2.4 7.75 7.75 0 002.48-5.78zm7.76-9.84V6.56a1.84 1.84 0 00-.54-1.31 1.8 1.8 0 00-1.31-.56h-4.78a1.8 1.8 0 00-1.31.56 1.84 1.84 0 00-.54 1.31v4.52A1.87 1.87 0 0030.6 13h4.8a1.87 1.87 0 001.85-1.89zM42 5.39v31.23A5.41 5.41 0 0136.62 42H5.39a5.19 5.19 0 01-3.8-1.59A5.19 5.19 0 010 36.62V5.39a5.19 5.19 0 011.59-3.8A5.19 5.19 0 015.39 0h31.23a5.19 5.19 0 013.8 1.59A5.19 5.19 0 0142 5.39z" fill="#fff"/></svg><svg id="mail" data-name="Layer 1" width="66" height="50" viewBox="-1 -1 66 50" x="112.67" y="227" xmlns="http://www.w3.org/2000/svg"><path d="M0 0v8l32 16L64 8V0H0zm0 16v32h64V16L32 32z" fill="#2f5572"/></svg><svg id="rain" data-name="Layer 1" width="66" height="66" viewBox="-1 -1 66 66" x="296.4" xmlns="http://www.w3.org/2000/svg"><path d="M36 0a20.42 20.42 0 00-20 16A16 16 0 000 32a15.4 15.4 0 004.27 10.72A11.88 11.88 0 0112 40a10.51 10.51 0 014.47 1A12 12 0 0128 32a12.06 12.06 0 0111.51 9A11.84 11.84 0 0144 40a11.94 11.94 0 0111 7.52A12.07 12.07 0 0064 36c0-5.2-3.36-10.32-8-12v-4A20 20 0 0036 0zm-9.27 40A4 4 0 0024 44v16a4 4 0 108 0V44a4 4 0 00-4.71-4h-.56zm-16 8A4 4 0 008 52v8a4 4 0 108 0v-8a4 4 0 00-4.71-4h-.54zm32 0A4 4 0 0040 52v8a4 4 0 108 0v-8a4 4 0 00-4.71-4h-.58z" transform="translate(-.04)" fill="#d4953f"/></svg><svg viewBox="-1 -1 498 498" width="65" height="65" id="smart-icon" x="195" y="288.33" xmlns="http://www.w3.org/2000/svg"><style>.pshp1{fill:#333}</style><path id="pLayer" fill-rule="evenodd" d="M357.96 208h-27.15a95.66 95.66 0 01-10.22 24.69l19.19 19.19-33.94 33.94-19.2-19.19c-7.61 4.51-15.9 7.96-24.68 10.23V304h-48v-27.14a95.049 95.049 0 01-24.69-10.23l-19.19 19.19-33.95-33.94 19.19-19.19A95.168 95.168 0 01145.1 208h-27.14v-48h27.14a95.66 95.66 0 0110.22-24.69l-19.19-19.19 33.95-33.94 19.19 19.19c7.61-4.51 15.9-7.96 24.69-10.23V64h48v27.14c8.78 2.28 17.06 5.72 24.68 10.23l19.2-19.19 33.94 33.94-19.19 19.19c4.5 7.62 7.96 15.91 10.22 24.69h27.15v48zm-64-24c0-30.93-25.08-56-56-56-30.93 0-56 25.07-56 56s25.07 56 56 56c30.92 0 56-25.07 56-56z" fill="#f9ba48"/><g id="pLayer"><path id="pLayer" fill-rule="evenodd" class="pshp1" d="M301.96 184c0 35.29-28.72 64-64 64-35.29 0-64-28.71-64-64s28.71-64 64-64c35.28 0 64 28.71 64 64zm-16 0c0-26.47-21.53-48-48-48-26.48 0-48 21.53-48 48s21.52 48 48 48c26.47 0 48-21.53 48-48z"/><path id="pLayer" fill-rule="evenodd" class="pshp1" d="M481.28 96c-.13.33-.26.66-.4.98l8.96 8.96-33.95 33.95-8.96-8.97c-.32.14-.65.27-.97.41V144h-28.65c2.94 13.18 4.49 26.6 4.49 40.07l.03 29.19c0 6.19-.39 12.46-.95 18.74h25.08v12.67c.32.14.65.27.97.41l8.96-8.97 33.95 33.95-8.96 8.96c.14.32.27.65.4.98h12.68v48h-12.68c-.13.33-.26.66-.4.98l8.96 8.96-33.95 33.95-8.96-8.97c-.32.14-.65.27-.97.41V376h-48v-12.67c-.33-.14-.66-.27-.98-.41l-8.96 8.97-19.14-19.14c-10.51 11.9-22.16 22.59-34.92 31.77V496h-16V376.17l3.46-2.39c13.3-9.16 25.37-20.08 36.12-32.37l-3.47-3.47 8.97-8.96c-.15-.32-.28-.65-.41-.98h-12.67v-48h12.67c.13-.33.26-.66.41-.98l-8.97-8.96 33.95-33.95 8.96 8.97c.32-.14.65-.27.98-.41V232h6.86c.6-6.28 1.01-12.55 1.01-18.74l-.03-29.18c0-13.5-1.73-26.94-4.96-40.08h-2.88v-12.67c-.33-.14-.66-.27-.98-.41l-8.96 8.97-33.95-33.95 8.97-8.96c-.15-.32-.28-.65-.41-.98h-12.67V59.25c-30.3-27.22-69.11-42.56-109.88-43.08-79.99-1.24-149.85 55.54-166.61 134.49-4.27 20.05-4.63 40.79-1.11 61.64l.48 2.79-46.97 84 52.09 14.88V408h80v88h-16v-72h-80v-97.97L2.04 308.91l54.09-96.74c-3.37-21.91-2.81-43.71 1.68-64.83C76 61.71 151.53.15 237.96.15c.77 0 1.54.01 2.32.02 45 .57 87.82 17.6 121.11 47.83h1.24c.13-.33.26-.66.41-.98l-8.97-8.96 33.95-33.95 8.96 8.97c.32-.14.65-.27.98-.41V0h48v12.67c.32.14.65.27.97.41l8.96-8.97 33.95 33.95-8.96 8.96c.14.32.27.65.4.98h12.68v48h-12.68zm-51.32 160.31V248h-16v8.31l-5.72 1.71c-3.26.97-6.32 2.24-9.11 3.75l-5.25 2.85-5.86-5.87-11.31 11.31 5.86 5.86-2.85 5.26c-1.52 2.79-2.77 5.85-3.75 9.11l-1.7 5.71h-8.31v16h8.31l1.7 5.71c.98 3.27 2.24 6.32 3.75 9.11l2.85 5.26-5.86 5.86 11.31 11.31 5.86-5.87 5.25 2.85c2.79 1.52 5.86 2.78 9.11 3.75l5.72 1.71V360h16v-8.31l5.71-1.71c3.26-.97 6.32-2.24 9.11-3.75l5.26-2.85 5.85 5.87 11.31-11.31-5.86-5.86 2.85-5.26c1.52-2.79 2.77-5.85 3.75-9.11l1.7-5.71h8.32v-16h-8.32l-1.7-5.71c-.98-3.27-2.24-6.32-3.75-9.11l-2.85-5.26 5.86-5.86-11.31-11.31-5.85 5.87-5.26-2.85c-2.79-1.52-5.86-2.78-9.11-3.75l-5.71-1.71zm48-192.31h-8.32l-1.7-5.71c-.98-3.27-2.24-6.32-3.75-9.11l-2.85-5.26 5.86-5.86-11.31-11.31-5.85 5.87-5.26-2.85c-2.79-1.52-5.86-2.78-9.11-3.75l-5.71-1.71V16h-16v8.31l-5.72 1.71c-3.26.97-6.32 2.24-9.11 3.75l-5.25 2.85-5.86-5.87-11.31 11.31 5.86 5.86-2.85 5.26c-1.52 2.79-2.77 5.85-3.75 9.11l-1.7 5.71h-8.31v16h8.31l1.7 5.71c.98 3.27 2.24 6.32 3.75 9.11l2.85 5.26-5.86 5.86 11.31 11.31 5.86-5.87 5.25 2.85c2.79 1.52 5.86 2.78 9.11 3.75l5.72 1.71V128h16v-8.31l5.71-1.71c3.26-.97 6.32-2.24 9.11-3.75l5.26-2.85 5.85 5.87 11.31-11.31-5.86-5.86 2.85-5.26c1.52-2.79 2.77-5.85 3.75-9.11l1.7-5.71h8.32V64z"/><path id="pLayer" fill-rule="evenodd" class="pshp1" d="M453.96 72c0 17.65-14.36 32-32 32-17.65 0-32-14.35-32-32s14.35-32 32-32c17.64 0 32 14.35 32 32zm-16 0c0-8.82-7.18-16-16-16-8.83 0-16 7.18-16 16s7.17 16 16 16c8.82 0 16-7.18 16-16zm-16 200c17.64 0 32 14.35 32 32s-14.36 32-32 32c-17.65 0-32-14.35-32-32s14.35-32 32-32zm0 16c-8.83 0-16 7.18-16 16s7.17 16 16 16c8.82 0 16-7.18 16-16s-7.18-16-16-16z"/></g></svg><svg id="star" data-name="Layer 1" width="66" height="66" viewBox="-1 -1 66 66" x="296.4" y="66" xmlns="http://www.w3.org/2000/svg"><path d="M32 0l-8 24H0l20 16-8 24 20-16 20 16-8-24 20-16H40z" fill="#d4953f"/></svg><svg id="twitter" data-name="Layer 1" width="53.78" height="44.06" viewBox="-1 -1 53.78 44.06" x="362.4" y="65" xmlns="http://www.w3.org/2000/svg"><path d="M51.78 5a22.23 22.23 0 01-5.32 5.52v1.38a30.15 30.15 0 01-1.25 8.53 30.81 30.81 0 01-3.76 8.13 32.1 32.1 0 01-6.06 6.92 27 27 0 01-8.48 4.8 31 31 0 01-10.62 1.8A29.47 29.47 0 010 37.29a22.71 22.71 0 002.56.13 20.78 20.78 0 0013.17-4.53 10.63 10.63 0 01-9.92-7.36 13.45 13.45 0 002 .16 11 11 0 002.79-.36 10.44 10.44 0 01-6.09-3.67 10.25 10.25 0 01-2.41-6.75v-.13a10.52 10.52 0 004.8 1.34 10.6 10.6 0 01-3.45-3.78 10.34 10.34 0 01-1.28-5.07 10.4 10.4 0 011.45-5.33 30.08 30.08 0 009.71 7.83A29.57 29.57 0 0025.53 13a11.79 11.79 0 01-.26-2.43 10.23 10.23 0 013-7.48 10.64 10.64 0 0115 0l.21.22A20.81 20.81 0 0050.33.8a10.3 10.3 0 01-4.67 5.85A21.14 21.14 0 0051.78 5z" fill="#fff"/></svg><svg viewBox="-1 -1 66 66" width="65" height="65" id="videom-icon" x="362.4" xmlns="http://www.w3.org/2000/svg"><style>.sshp0{fill:#f0bc5e}.sshp1{fill:#000}</style><g id="sLayer"><path id="sLayer" class="sshp0" d="M26.88 11.57L25.5 18h-4.79l.89-4.15 5.28-2.28zm5.27-2.28L37.43 7l-1.68 7.84-5.26 2.22 1.66-7.77zm15.83-6.85l-1.71 7.97-5.26 2.22 1.69-7.91 5.28-2.28zM26 24h-6l-6-6h6l6 6zm2.25-6H32l6 6h-6l-6-6h2.25zM50 24h-6l-6-6h6l6 6z"/><g id="sLayer"><path id="sLayer" class="sshp1" d="M7 57h2v2H7v-2zm4 0h2v2h-2v-2zm4 0h2v2h-2v-2z"/></g><path id="sLayer" fill-rule="evenodd" class="sshp1" d="M63 53v5c0 2.76-2.24 5-5 5H6c-2.76 0-5-2.24-5-5v-5h2V18c0-2.76 2.24-5 5-5h13.04L49.47.71l3.9 7.8L42.7 13H56c2.76 0 5 2.24 5 5v35h2zM37.95 15l-4.75 2H55c1.1 0 2 .9 2 2v34h2V18c0-1.65-1.35-3-3-3H37.95zM55 53V19h-2v26H42v-2h9V25H13v18h9v2H11V19H9v34h46zm6 2H43v1c0 1.65-1.35 3-3 3H24c-1.65 0-3-1.35-3-3v-1H3v3c0 1.65 1.35 3 3 3h52c1.65 0 3-1.35 3-3v-3zM13 19v4h38v-4H13zM48.53 3.29L16.83 17h11.22l22.58-9.51-2.1-4.2zM5 53h2V19c0-1.1.9-2 2-2h2.79l4.63-2H8c-1.65 0-3 1.35-3 3v35zm18 2v1c0 .55.45 1 1 1h16c.55 0 1-.45 1-1v-1H23z"/><path id="sLayer" class="sshp0" d="M32 51c-6.62 0-12-5.38-12-12s5.38-12 12-12 12 5.38 12 12-5.38 12-12 12z"/><g id="sLayer"><path id="sLayer" fill-rule="evenodd" class="sshp1" d="M28 44.62V33.38L39.24 39 28 44.62zm2-8v4.76L34.76 39 30 36.62z"/></g></g></svg><svg viewBox="-1 -1 66 66" width="65" height="65" id="web-icon" y="288.33" xmlns="http://www.w3.org/2000/svg"><style>.tshp0{fill:#f0bc5e}.tshp1{fill:#000}</style><g id="tLayer"><g id="tLayer"><path id="tLayer" class="tshp0" d="M59 23H41V11h18v12z"/></g><g id="tLayer"><path id="tLayer" class="tshp0" d="M59 35H41v-9h18v9z"/></g><g id="tLayer"><path id="tLayer" class="tshp0" d="M5 23h32v12H5V23z"/></g><g id="tLayer"><path id="tLayer" class="tshp0" d="M19 47H5V37h14v10z"/></g><g id="tLayer"><path id="tLayer" class="tshp0" d="M35 47H21V37h14v10z"/></g><g id="tLayer"><path id="tLayer" fill-rule="evenodd" class="tshp1" d="M63 6v36c0 2.76-2.24 5-5 5h-3v5c0 2.76-2.24 5-5 5H37v4h4v2H15v-2h4v-4H6c-2.76 0-5-2.24-5-5V24c0-2.76 2.24-5 5-5h31V6c0-2.76 2.24-5 5-5h16c2.76 0 5 2.24 5 5zM39 6v1h22V6c0-1.65-1.35-3-3-3H42c-1.65 0-3 1.35-3 3zm0 3v28h22V9H39zm-4 48H21v4h14v-4zm18-5v-1H3v1c0 1.65 1.35 3 3 3h44c1.65 0 3-1.35 3-3zm0-5H42c-2.76 0-5-2.24-5-5V21H6c-1.65 0-3 1.35-3 3v25h50v-2zm8-5v-3H39v3c0 1.65 1.35 3 3 3h16c1.65 0 3-1.35 3-3z"/><path id="tLayer" class="tshp1" d="M47 41h6v2h-6v-2zm10-8h2v2h-2v-2zm-16 0h14v2H41v-2zm0-4h18v2H41v-2zm0-4h18v2H41v-2zM21 37h14v2H21v-2zm0 4h14v2H21v-2zm0 4h10v2H21v-2zm12 0h2v2h-2v-2z"/></g></g></svg><svg id="wifi" data-name="Layer 1" width="62" height="66" viewBox="-1 -1 62 66" x="218" y="61.53" xmlns="http://www.w3.org/2000/svg"><path d="M29.88 0A55.39 55.39 0 000 8.72l4.22 6.48a47.32 47.32 0 0125.66-7.28 47.31 47.31 0 0125.9 7.28L60 8.72A55.53 55.53 0 0029.88 0zm0 24a31.08 31.08 0 00-17 5l4.22 6.72A23.09 23.09 0 0129.8 32a24.17 24.17 0 0113 3.76L47 29a32.37 32.37 0 00-17.2-5h.07zm0 24a8 8 0 108 8 8 8 0 00-8-8z" fill="#d4953e"/></svg><svg id="youtube" data-name="Layer 1" width="36.75" height="44" viewBox="-1 -1 36.75 44" x="385.63" y="153.07" xmlns="http://www.w3.org/2000/svg"><path d="M22.13 29.15v5q0 1.57-.91 1.57a1.5 1.5 0 01-1.06-.52v-7.11a1.5 1.5 0 011.06-.54q.91 0 .91 1.6zm7.92 0v1.08h-2.1v-1.06q0-1.59 1.06-1.59t1 1.59zM7.42 24h2.5v-2.14h-7.3v2.2h2.46V37.4h2.34V24zm6.75 13.4h2.09V25.82h-2.09v8.86a1.86 1.86 0 01-1.31 1 .48.48 0 01-.49-.47 6.52 6.52 0 010-.82v-8.57h-2.14V35a5.79 5.79 0 00.19 1.71 1.26 1.26 0 001.36.87 3.43 3.43 0 002.39-1.43v1.25zm10.05-3.47v-4.6A8.33 8.33 0 0024 27a1.63 1.63 0 00-1.67-1.31A2.82 2.82 0 0020.16 27v-5.1h-2.08v15.5h2.09v-1.13a2.91 2.91 0 002.18 1.31A1.62 1.62 0 0024 36.27a8.61 8.61 0 00.22-2.35zm7.92-.24v-.3H30a11.6 11.6 0 010 1.43.9.9 0 01-.94.85q-1.08 0-1.08-1.61V32h4.19v-2.41a4.65 4.65 0 00-.66-2.72 3.2 3.2 0 00-5 0 4.52 4.52 0 00-.66 2.72v4.05a4.4 4.4 0 00.66 2.72 3 3 0 002.49 1.2 2.9 2.9 0 003-2.51 10.31 10.31 0 00.09-1.36zM17.89 12.3V7.38q0-1.61-1-1.61t-1 1.61v4.92q0 1.64 1 1.64t1-1.64zm16.85 17.6a40.6 40.6 0 01-.61 8.2 4.45 4.45 0 01-1.36 2.32 4.1 4.1 0 01-2.39 1.08 125.31 125.31 0 01-13 .49 125.31 125.31 0 01-13-.49A4.15 4.15 0 012 40.42 4.28 4.28 0 01.63 38.1 39.76 39.76 0 010 29.9a40.6 40.6 0 01.61-8.2A4.45 4.45 0 012 19.37a4.25 4.25 0 012.41-1.1q4.29-.47 13-.47t13 .47a4.4 4.4 0 013.75 3.42 39.76 39.76 0 01.58 8.21zM11.35 0h2.39l-2.83 9.35v6.35H8.57V9.35a39.68 39.68 0 00-1.43-5Q6.27 2 5.61 0H8.1l1.67 6.16zM20 7.8v4.1a4.59 4.59 0 01-.66 2.76 2.88 2.88 0 01-2.49 1.19 2.9 2.9 0 01-2.46-1.19 4.68 4.68 0 01-.66-2.76V7.8a4.59 4.59 0 01.66-2.74 2.9 2.9 0 012.46-1.19 2.88 2.88 0 012.49 1.19A4.59 4.59 0 0120 7.8zM27.87 4v11.7h-2.13v-1.27a3.37 3.37 0 01-2.41 1.45A1.31 1.31 0 0122 15a6 6 0 01-.19-1.76V4h2.13v8.6a6.14 6.14 0 000 .82.49.49 0 00.47.52 1.87 1.87 0 001.31-1V4h2.16z" fill="#fff"/></svg></svg>