<svg xmlns="http://www.w3.org/2000/svg" viewBox="0 0 500 500" width="63" height="63">
	<style>
		tspan { white-space:pre }
		.shp0 { fill: #ffa64d } 
		.shp1 { fill: #333333 } 
	</style>
	<path class="shp0" d="M448 137.55L448 137.55L448 137.55L448 137.55C448 78.38 402.12 29.93 344 25.83L344 17.55C344 13.13 340.42 9.55 336 9.55L320 9.55C315.58 9.55 312 13.13 312 17.55L312 25.83C253.88 29.93 208 78.38 208 137.55L208 137.55C208 137.55 208 137.55 208.01 137.55L208 137.55C203.58 137.55 200 141.13 200 145.55L200 161.55C200 165.96 203.58 169.55 208 169.55L448 169.55C452.42 169.55 456 165.96 456 161.55L456 145.55C456 141.13 452.42 137.55 448 137.55Z" />
	<g >
		<path fill-rule="evenodd" class="shp1" d="M352 213.55C352 202.52 360.97 193.55 372 193.55C383.03 193.55 392 202.52 392 213.55C392 224.58 383.03 233.55 372 233.55C360.97 233.55 352 224.58 352 213.55ZM368 213.55C368 215.75 369.8 217.55 372 217.55C374.2 217.55 376 215.75 376 213.55C376 211.35 374.2 209.55 372 209.55C369.8 209.55 368 211.35 368 213.55Z" />
		<path fill-rule="evenodd" class="shp1" d="M284 233.55C272.97 233.55 264 224.58 264 213.55C264 202.52 272.97 193.55 284 193.55C295.03 193.55 304 202.52 304 213.55C304 224.58 295.03 233.55 284 233.55ZM288 213.55C288 211.35 286.2 209.55 284 209.55C281.8 209.55 280 211.35 280 213.55C280 215.75 281.8 217.55 284 217.55C286.2 217.55 288 215.75 288 213.55Z" />
		<path class="shp1" d="M368 265.55L352 265.55C352 278.78 341.23 289.55 328 289.55C314.77 289.55 304 278.78 304 265.55L288 265.55C288 287.6 305.94 305.55 328 305.55C350.06 305.55 368 287.6 368 265.55Z" />
		<path fill-rule="evenodd" class="shp1" d="M80 265.55C80 252.32 90.77 241.55 104 241.55C117.23 241.55 128 252.32 128 265.55C128 278.78 117.23 289.55 104 289.55C90.77 289.55 80 278.78 80 265.55ZM96 265.55C96 269.96 99.58 273.55 104 273.55C108.42 273.55 112 269.96 112 265.55C112 261.13 108.42 257.55 104 257.55C99.58 257.55 96 261.13 96 265.55Z" />
		<path fill-rule="evenodd" class="shp1" d="M192 463.25L192 497.55L176 497.55L176 464.96C166.91 463.13 159.22 456.69 156.05 447.72L142.58 409.55L65.43 409.55L51.96 447.72C48.78 456.69 41.09 463.13 32 464.96L32 497.55L16 497.55L16 463.25C6.6 459.1 0 449.72 0 438.8L0 436.45C0 433.7 0.42 430.96 1.26 428.35L56 256.31L56 246.35L56.08 246.35C56.48 232.32 66.62 220.7 80 218.12L80 169.55L128 169.55L128 218.12C141.38 220.71 151.53 232.32 151.92 246.35L152 246.35L152 256.31L186.12 363.52C194 347.4 209.17 335.91 227.2 332.91L279.42 324.2C257.63 311.34 241.39 290.17 235.03 265.04C215.34 262.56 200 245.9 200 225.55L200 175.32C195.24 172.55 192 167.44 192 161.55L192 145.55C192 139.54 195.38 134.36 200.29 131.61C203.15 74.06 247.08 26.37 304 18.74L304 17.55C304 8.72 311.18 1.55 320 1.55L336 1.55C344.82 1.55 352 8.72 352 17.55L352 18.74C408.92 26.37 452.85 74.06 455.71 131.62C460.62 134.36 464 139.54 464 145.55L464 161.55C464 167.44 460.76 172.55 456 175.32L456 225.55C456 245.9 440.66 262.56 420.97 265.04C414.61 290.17 398.37 311.35 376.58 324.2L428.8 332.91C449.31 336.32 466.14 350.7 472.72 370.43L499.1 449.55L205.7 449.55C203.01 455.65 198.1 460.56 192 463.25ZM289.15 383.38L281.15 407.38L307.31 433.55L310.1 433.55L291.14 345.06C290.3 343.05 289.6 340.97 289.09 338.82L284.62 339.56L273.39 367.62L289.15 383.38ZM366.91 338.81C366.4 340.96 365.7 343.04 364.86 345.05L345.9 433.55L348.69 433.55L374.84 407.38L366.84 383.38L382.61 367.61L371.38 339.56L366.91 338.81ZM343.99 366.06C339.08 368.23 333.71 369.55 328 369.55C322.29 369.55 316.92 368.23 312 366.06L326.46 433.55L329.54 433.55L343.99 366.06ZM350.71 334.72C343.42 336.5 335.84 337.55 328 337.55C320.16 337.55 312.58 336.5 305.29 334.72L306.37 339.76C310.22 347.88 318.43 353.55 328 353.55C337.57 353.55 345.78 347.88 349.63 339.76L350.71 334.72ZM426.18 348.7L389.85 342.64L401.38 371.48L385.15 387.72L393.15 411.72L371.31 433.55L422.24 433.55L416.16 403.12L431.85 399.98L438.56 433.55L476.9 433.55L457.55 375.49C452.85 361.4 440.83 351.13 426.18 348.7ZM424 177.55L424 186.36C429.94 187.57 435.33 190.22 440 193.76L440 177.55L424 177.55ZM440 225.55C440 215.13 433.29 206.33 424 203.02L424 241.55C424 243.79 423.82 245.98 423.66 248.18C433.13 244.96 440 236.08 440 225.55ZM393.7 51.23L377.78 129.55L408 129.55L408 145.55L208 145.55L208 161.55L448 161.55L448 145.55L424 145.55L424 129.55L439.61 129.55C437.1 97.11 419.51 68.59 393.7 51.23ZM216 177.55L216 193.75C220.67 190.21 226.06 187.57 232 186.36L232 177.55L216 177.55ZM319.98 17.55L320 97.55L336 97.55L336 17.55L319.98 17.55ZM304 97.55L304 34.83C294.48 36.31 285.42 39.1 276.96 42.99L294.54 129.55L361.46 129.55L379.05 42.99C370.58 39.1 361.52 36.31 352 34.83L352 97.55C352 106.37 344.82 113.55 336 113.55L320 113.55C311.18 113.55 304 106.37 304 97.55ZM216.39 129.55L278.21 129.55L262.3 51.23C236.49 68.59 218.9 97.11 216.39 129.55ZM232.34 248.18C232.18 245.98 232 243.79 232 241.55L232 203.02C222.71 206.33 216 215.13 216 225.55C216 236.08 222.87 244.96 232.34 248.18ZM328 321.55C372.11 321.55 408 285.66 408 241.55L408 177.55L248 177.55L248 241.55C248 285.66 283.89 321.55 328 321.55ZM194.09 388.58L206.74 428.36C207.28 430.04 207.58 431.79 207.78 433.55L217.44 433.55L224.16 399.97L239.85 403.12L233.76 433.55L284.69 433.55L262.85 411.7L270.85 387.7L254.62 371.47L266.15 342.63L229.82 348.68C215.18 351.13 203.15 361.4 198.45 375.49L194.09 388.58ZM96 185.55L96 217.55L112 217.55L112 185.55L96 185.55ZM72 247.17C72 248.17 72.11 249.16 72.32 250.12L84.05 302.88C85.45 309.16 90.91 313.55 97.35 313.55L110.65 313.55C117.09 313.55 122.55 309.16 123.95 302.88L135.67 250.13C135.89 249.16 136 248.17 136 247.17C136 239.66 129.89 233.55 122.38 233.55L85.62 233.55C78.11 233.55 72 239.66 72 247.17ZM93.77 329.24L82.37 361.55L125.63 361.55L114.23 329.24C113.05 329.39 111.86 329.55 110.65 329.55L97.35 329.55C96.14 329.55 94.95 329.39 93.77 329.24ZM78.94 323.18C73.76 319.08 69.96 313.24 68.42 306.35L63.67 284.96L16.5 433.2C16.17 434.25 16 435.34 16 436.45L16 438.8C16 444.72 20.82 449.55 26.74 449.55C31.29 449.55 35.36 446.67 36.87 442.38L78.94 323.18ZM136.94 393.55L131.29 377.55L76.73 377.55L71.08 393.55L136.94 393.55ZM192 436.45C192 435.35 191.83 434.25 191.5 433.2L144.33 284.96L139.58 306.34C138.03 313.24 134.23 319.08 129.06 323.17L171.13 442.38C172.64 446.67 176.71 449.55 181.26 449.55C187.18 449.55 192 444.72 192 438.8L192 436.45Z" />
	</g>
	<g >
	</g>
	<g >
	</g>
	<g >
	</g>
	<g >
	</g>
	<g >
	</g>
	<g >
	</g>
	<g >
	</g>
	<g >
	</g>
	<g >
	</g>
	<g >
	</g>
	<g >
	</g>
	<g >
	</g>
	<g >
	</g>
	<g >
	</g>
	<g >
	</g>
</svg>