<svg xmlns="http://www.w3.org/2000/svg" viewBox="0 0 415 441" width="150" height="159">
	<defs>
		<clipPath clipPathUnits="userSpaceOnUse" id="cp1">
			<path d="M-210 -217L608 -217L608 601L-210 601Z" />
		</clipPath>
	</defs>
	<style>
		tspan { white-space:pre }
		.shp0 { fill: #ffffff } 
		.shp1 { opacity: 0.239;fill: #c7d0d8 } 
		.shp2 { fill: #278f03 } 
		.shp3 { fill: #000000 } 
		.shp4 { fill: #fc7138 } 
		.shp5 { fill: #ffde59 } 
		.shp6 { fill: #ffbd59 } 
	</style>
	<g clip-path="url(#cp1)">
		<path class="shp0" d="M-210 600.95L608.03 600.95L608.03 -217.08L-210 -217.08L-210 600.95ZM-193.5 -200.58L592.5 -200.58L592.5 585.42L-193.5 585.42L-193.5 -200.58Z" />
		<path class="shp1" d="M199.07 140.92C239.55 140.92 272.34 173.72 272.34 214.19C272.34 254.66 239.55 287.46 199.07 287.46C158.6 287.46 125.8 254.66 125.8 214.19C125.8 173.72 158.6 140.92 199.07 140.92Z" />
		<path fill-rule="evenodd" class="shp2" d="M199.98 209.55C199.51 207.89 199.74 203.84 201.41 202.89C204.04 201.46 204.99 205.27 204.76 207.17C204.28 208.36 203.32 209.79 201.65 209.55C201.65 209.55 199.98 209.55 199.98 209.55ZM159.89 202.41C169.68 204.55 162.04 212.17 156.08 213.6C152.7 214.41 146.47 213.53 147.1 208.9C147.28 207.58 147.8 206.47 148.55 205.56C151.08 202.49 156.24 201.62 159.89 202.41ZM156.79 231.21C156.08 233.12 153.21 236.69 150.82 236.69C147.48 236.69 147.96 233.83 147.96 231.45C148.25 228.58 148.76 222.96 152.44 222.4C153.84 222.18 154.9 222.66 155.66 223.51C157.35 225.41 157.56 229.16 156.79 231.21ZM226.77 262.39C225.42 260.64 226.49 257.89 227.58 256.28C228.89 254.34 230.95 252.9 233.39 253.35C235.54 253.83 236.97 256.44 236.49 258.82C235.98 261.64 232.07 264.35 229.27 263.73C228.59 263.58 227.88 263.38 227.3 262.93C227.1 262.76 226.92 262.58 226.77 262.39ZM210.72 264.62C210.72 263.01 211.52 262.07 212.63 260.96C214.06 259.54 216.69 259.54 218.36 260.01C223.13 261.2 223.37 268.11 218.12 268.35C216.15 268.44 213.74 268.26 212.07 267.1C211.25 266.53 210.73 265.72 210.72 264.7C210.72 264.67 210.72 264.65 210.72 264.62ZM149.57 255.64C148.87 254.31 148.83 252.7 149.65 251.33C150.42 250.05 151.88 248.94 153.45 249.3C156.08 250.25 158.7 257.16 156.08 258.58C154.42 259.32 152.1 258.19 150.82 257.16C150.29 256.74 149.87 256.22 149.57 255.64ZM195.21 229.79C195.21 229.79 195.21 229.79 195.21 229.78L195.21 229.79ZM193.06 218.6C197.12 217.65 200.7 224.31 199.27 227.64C198.55 229.07 196.88 231.21 194.97 230.02L195.21 229.79C193.53 231.44 186.39 220.03 193.06 218.6ZM196.76 248.43C197.94 248.25 199.1 249.27 199.27 250.73C199.74 252.87 197.12 255.01 195.45 253.11C194.07 251.73 194.8 250.03 196.04 248.95L195.21 249.54C195.66 248.88 196.19 248.53 196.73 248.44C196.78 248.41 196.83 248.38 196.88 248.35L196.76 248.43ZM196.73 248.44C196.49 248.59 196.26 248.76 196.04 248.95L196.76 248.43C196.75 248.43 196.74 248.44 196.73 248.44ZM200.46 234.3C200.17 234.46 199.88 234.65 199.6 234.85L200.46 234.3ZM199.6 234.85L197.84 235.97C199.98 232.4 203.8 234.54 204.04 237.88C204.76 241.21 200.7 244.54 198.07 241.92C195.52 239.59 197.32 236.51 199.6 234.85ZM229.57 221.93C229.55 222.02 229.53 222.1 229.51 222.2C229.55 222.4 229.64 222.63 229.81 222.88L229.57 221.93ZM229.51 222.2C229.35 221.22 230.5 220.7 231.48 220.5C234.11 220.27 235.3 224.55 232.68 225.26C231.11 225.71 229.33 223.63 229.51 222.2ZM224.5 229C225.5 227.96 227.38 228.49 228.62 229.55C232.44 232.88 228.14 239.78 224.08 237.4C221.46 235.73 221.93 230.26 224.56 228.83L224.5 229ZM223.84 230.74L224.5 229C224.15 229.37 223.91 229.93 223.84 230.74ZM242.94 215.5C238.88 218.36 237.21 203.6 241.27 200.51C248.19 195.51 256.06 205.98 255.11 212.17C254.39 218.36 251.77 221.45 245.56 219.07L242.94 215.5ZM231.24 197.42C236.97 197.65 237.93 205.74 233.63 208.36C230.29 210.51 226.47 210.51 223.37 207.89L225.28 208.6C222.42 205.03 226.71 197.18 231.24 197.42ZM218.95 195.52C219.05 195.69 219.17 195.85 219.31 195.99L218.95 195.52ZM218.83 189.32C219.79 185.51 222.18 184.33 225.99 185.28C232.68 186.94 232.2 193.84 226.23 196.22C223.13 197.65 219.07 197.65 217.64 193.84L218.95 195.52C217.97 193.92 218.41 191.04 218.83 189.32ZM206.66 194.8C201.65 195.03 200.7 188.61 202.61 185.04C206.9 177.18 216.69 182.42 216.21 190.27C215.73 194.08 212.63 196.23 208.81 195.51L206.66 194.8ZM239.36 244.06C237.93 242.4 237.45 237.88 240.07 236.93C243.41 235.26 244.13 240.02 243.65 242.4C242.94 244.3 241.03 244.78 239.12 243.35L239.36 244.06ZM180.18 217.88C179.7 216.22 180.65 212.41 182.56 213.6C184.47 214.79 183.76 219.31 182.08 219.79C180.42 220.26 178.5 218.36 179.46 216.46L180.18 217.88ZM179.22 203.13C179.94 200.51 181.13 199.32 183.28 200.51C186.14 202.17 186.14 205.98 183.28 207.41C179.7 209.55 179.46 204.79 178.27 202.41L179.22 203.13ZM163.71 222.17C163.69 222.18 163.66 222.19 163.64 222.21C163.34 222.51 163.11 222.96 163 223.6L163.71 222.17ZM163.64 222.21C164.57 221.25 166.2 221.74 167.29 222.65C170.63 225.5 166.81 231.45 163.23 229.31C161.11 228.13 161.32 223.46 163.64 222.21ZM186.14 265.49C189.48 265.96 197.84 270.96 191.87 273.82C189.67 274.87 186.95 275.68 184.51 275.07C183.38 274.79 182.39 274.18 181.7 273.24C180.56 271.7 180.43 269.99 180.99 268.58C181.73 266.68 183.69 265.3 186.14 265.49ZM165.42 265.9C163.77 264.36 162.86 262.21 164.62 260.28C166.09 258.66 168.42 257.29 170.63 257.16C175.4 256.44 183.76 262.15 178.03 266.44C175.68 268.44 171.74 268.55 168.89 267.85C167.75 267.57 166.44 266.85 165.42 265.9ZM140.09 237.88L140.34 238.3C140.83 237.15 142.01 236.69 143.43 236.69C146.29 236.93 148.44 243.11 149.4 245.26C148.92 245.73 148.44 246.45 147.48 246.68C144.38 247.16 141.04 240.02 140.09 237.88ZM140.34 238.3C140.34 238.32 140.33 238.34 140.32 238.35C140.57 238.59 140.57 238.83 140.8 239.07L140.34 238.3ZM178.74 238.83C181.61 238.11 182.32 242.16 180.18 243.35C178.98 242.16 178.27 240.02 179.94 239.54L178.74 238.83ZM168.72 233.83C170.15 231.93 171.82 231.93 172.78 233.83C173.97 236.21 173.73 241.21 169.68 239.78C167.29 239.07 166.81 234.54 168.96 233.36L168.72 233.83ZM153.93 239.78C154.41 238.83 153.93 239.54 155.12 240.02C157.27 241.21 157.27 242.87 155.6 243.11C153.93 243.83 150.82 241.45 152.74 240.49L153.93 239.78ZM145.57 229.07C144.62 236.45 137.22 233.12 136.03 227.64C135.43 224.89 137.8 222.23 140.32 221.51C142.42 220.91 143.78 221.74 144.6 223.13C145.59 224.81 145.8 227.3 145.57 229.07ZM134.6 197.41L134.52 197.71C134.54 197.62 134.57 197.52 134.6 197.41ZM133.64 200.98C133.72 200.55 133.82 200.17 133.95 199.84L133.64 200.98ZM141.76 200.27C140.47 204.98 134.35 203.53 134.35 199.02C136 196.5 139.55 198.47 141.76 200.27ZM134.35 199.02C134.2 199.26 134.06 199.53 133.95 199.84L134.52 197.71C134.4 198.17 134.35 198.61 134.35 199.02ZM139.28 209.67C139.7 209.52 140.15 209.46 140.62 209.51C142.15 209.68 143.46 210.86 144.14 212.17C146.77 217.17 138.65 220.74 136.51 216.22C135.87 214.87 135.86 213.29 136.66 211.99C137.27 210.99 138.18 210.04 139.28 209.67ZM146.05 192.89L146.05 195.27C147.25 192.89 147.72 185.28 152.02 187.65C155.6 189.8 152.97 199.08 149.87 200.98C144.14 204.32 141.99 194.08 146.05 192.89ZM141.63 185.07C142.83 183.66 144.46 183.25 145.34 185.51C146.29 188.37 142.95 195.03 140.09 191.7C138.41 190.04 140.8 184.33 142.47 183.61L141.63 185.07ZM140.57 186.94L141.63 185.07C141.2 185.59 140.82 186.24 140.57 186.94ZM155.36 180.04C155.01 180 154.64 180.08 154.29 180.25L155.36 180.04ZM154.29 180.25L154.17 180.28C155.6 178.37 159.18 177.18 159.89 180.04C160.85 182.89 154.17 186.7 152.25 185.28C150.86 184.28 152.47 181.12 154.29 180.25ZM159.66 175.75L160.13 173.85C158.22 175.99 154.17 178.37 151.3 176.47C146.29 172.9 154.64 165.76 158.94 166.23C163.71 167.42 164.43 174.09 159.66 175.75ZM168.48 167.42C167.53 164.81 169.68 161 171.11 159.09C175.64 153.38 179.94 159.33 176.6 164.09C175.16 166.23 165.14 171.23 167.53 165.52L168.48 167.42ZM178.5 164.81L180.24 167.83C178.89 165.2 180.72 161.15 182.56 159.1C187.1 154.1 192.11 156.95 187.81 162.66C185.9 165.52 178.5 172.42 178.5 164.81ZM180.24 167.83C180.29 167.94 180.35 168.04 180.42 168.14L180.24 167.83ZM195.68 156.95C195.73 157.07 195.78 157.19 195.84 157.3C195.77 157.56 195.71 157.85 195.68 158.14L195.68 156.95ZM195.84 157.3C196.35 155.43 197.87 154.33 199.74 154.33C207.19 155.03 198.07 161.62 195.84 157.3ZM205.23 156.95L205.2 157.19C205.21 157.1 205.22 157.02 205.23 156.95ZM205.2 157.19C205.16 157.58 205.13 158.09 205.13 158.67C205.09 158.73 205.04 158.79 204.99 158.86L205.2 157.19ZM212.63 158.62C213.58 161.24 210.96 166.23 207.38 164.57C205.58 163.85 205.14 160.83 205.13 158.67C207.52 155.46 210.99 153.95 212.63 158.62ZM216.21 161C218.12 158.14 222.18 157.19 224.8 160.28C227.66 163.85 223.84 169.8 219.55 168.14C216.21 167.19 215.02 161.24 216.93 158.86L216.21 161ZM229.33 163.38C229.36 163.41 229.38 163.44 229.4 163.46C229.36 163.66 229.33 163.87 229.33 164.09L229.33 163.38ZM229.4 163.46C229.94 160.9 233.79 160.35 235.78 161.24C238.17 162.66 239.6 166.47 236.97 167.66C233.91 168.83 230.85 165.38 229.4 163.46ZM247.95 184.56C251.05 182.66 254.87 185.51 251.77 188.13C249.14 190.27 246.28 188.13 247.47 185.04L247.95 184.56ZM239.6 176.23L242.46 176.71C239.83 175.52 240.79 171.23 243.17 170.28C247.71 167.9 257.01 176.71 252.72 180.99C249.38 184.33 241.51 179.09 239.6 176.23ZM256.3 188.85C255.98 189.04 255.66 189.25 255.35 189.48L256.3 188.85ZM255.35 189.48L252.72 191.23C255.58 186.47 260.84 189.32 261.55 193.84C262.26 198.6 256.78 203.36 252.96 199.32C249.48 196.07 252.14 191.83 255.35 189.48ZM259.16 203.84L259.16 204.79C261.31 202.17 264.89 205.27 265.37 207.65C266.32 210.51 262.98 214.79 259.88 212.89C257.01 211.22 257.73 205.74 259.16 203.84ZM257.97 216.22C260.36 214.31 263.46 217.41 263.93 219.79C264.65 222.65 261.79 228.12 258.21 225.74C256.06 224.07 255.58 216.93 258.21 215.27L257.97 216.22ZM253.91 228.6C256.3 224.55 260.36 229.78 259.88 232.64C257.97 241.21 243.41 232.64 253.67 226.93L253.91 228.6ZM248.9 237.88C252.96 235.5 254.87 241.92 253.91 244.78C252.72 248.11 243.89 253.82 242.94 248.11C242.22 243.83 246.28 239.3 249.86 237.64L248.9 237.88ZM218.12 248.59C223.13 246.44 228.38 254.54 223.13 257.39C221.22 258.58 217.4 259.06 215.73 257.16C214.54 255.8 214.39 253.92 214.95 252.24C215.47 250.65 216.62 249.23 218.12 248.59ZM187.57 169.33C187.92 169.98 188.36 170.48 188.87 170.86C189.12 170.92 189.4 170.97 189.72 170.99L187.57 169.33ZM188.87 170.86C184.83 169.87 189.6 164.72 191.39 163.38C193.78 161.71 197.36 159.57 199.98 161.24C202.85 162.66 203.08 165.52 201.18 167.66C199.1 170.36 192.32 173.41 188.87 170.86ZM173.97 190.27C173.91 190.32 173.85 190.36 173.79 190.41C173.77 190.44 173.75 190.48 173.73 190.51L173.97 190.27ZM173.79 190.41C174.57 189.1 176.66 185.3 178.74 186.23C181.37 186.94 178.98 190.51 177.55 191.46C175.93 192.39 171.82 191.96 173.79 190.41ZM161.8 200.27C154.41 200.98 154.64 188.85 160.13 186.7C163.71 185.24 167.82 188.44 168.4 191.98C168.59 193.1 168.36 194.31 167.85 195.45C166.74 197.95 164.27 200.11 161.8 200.27ZM173 186.61C172.28 186.72 171.5 186.61 170.45 186.27C169.02 185.81 168.37 184.64 167.77 183.37C165.38 178.37 172.3 164.33 178.74 170.99C181.47 173.82 180.83 178.04 179.05 181.17C178.11 182.83 176.84 184.26 175.33 185.43C174.46 186.1 173.77 186.48 173 186.61ZM175.16 199.56L173.73 197.89C174.69 199.56 174.45 201.46 173.02 202.89C169.68 205.74 165.62 201.94 168.72 198.84C170.63 196.94 174.21 196.7 175.16 199.56ZM194.06 189.82C194.27 189.29 194.54 188.6 194.67 188.29C193.4 191.34 189.43 194.51 186.14 191.94C179.7 187.18 186.86 174.8 192.82 173.37C201.98 171.63 197.39 184.39 194.53 189.34C194.69 189.09 194.84 188.83 195.01 188.59M194.53 189.34C194.26 189.8 194.01 190.2 193.78 190.51C194.05 190.15 194.29 189.74 194.53 189.34ZM194.73 188.13C194.73 188.13 194.71 188.19 194.67 188.29C194.69 188.24 194.71 188.19 194.73 188.13ZM209.77 167.19C214.3 167.19 223.61 174.57 218.83 179.32C216.21 182.42 212.15 179.09 208.57 179.32L206.9 179.32C198.07 178.14 202.61 166.95 209.77 167.19ZM229.81 184.18C229.49 184.06 229.18 183.88 228.86 183.61L229.81 184.18C225.4 181.45 222.48 174.49 225.99 170.28C228.86 166.95 231.96 168.85 234.35 171.23C237.21 174.33 238.17 176.23 235.78 180.04C234.51 181.73 232.29 185.11 229.81 184.18L230.05 184.33C229.97 184.28 229.89 184.23 229.81 184.18ZM229.81 184.18L229.81 184.18C229.81 184.18 229.81 184.18 229.81 184.18C229.81 184.18 229.81 184.18 229.81 184.18ZM237.45 181.94C242.94 180.99 247.95 190.04 246.04 194.8C245.08 196.7 242.7 199.32 240.31 198.13L240.55 197.41C237.93 200.03 228.38 184.08 237.45 181.94ZM244.61 221.45C248.67 221.22 250.33 226.69 247.95 229.55C246.52 231.69 243.41 231.93 241.51 230.5L241.03 227.88C238.88 225.98 241.98 221.45 244.61 221.45Z" />
		<path class="shp3" d="M205.47 307.61C206.47 292.43 200.46 273.34 189.01 258.82C187.57 257.16 186.14 255.25 184.95 253.35C178.5 249.07 169.68 247.64 157.03 252.16C160.37 249.54 164.19 247.64 168.25 246.44C162.76 242.87 159.89 237.16 159.66 231.69C160.61 239.78 166.1 243.83 171.59 245.97C174.93 245.5 178.5 245.73 181.85 246.92C179.22 240.73 177.55 234.07 176.6 227.4C173.26 221.22 166.34 215.03 155.36 216.93C162.04 215.27 170.15 216.93 176.12 223.12C175.4 215.74 175.88 208.84 176.84 202.89C175.16 219.79 178.75 233.36 184.71 243.11C184.71 242.63 184.71 241.92 184.47 241.21C183.52 232.4 185.19 223.12 188.29 214.79C189.96 208.36 189.48 200.51 182.09 195.03C186.38 197.89 189.96 202.65 190.92 208.84C193.78 202.89 197.36 197.65 200.94 193.61C187.1 211.7 186.62 231.69 189.72 244.06C190.42 246.67 191.76 249.05 193.08 251.39C194.21 253.4 195.34 255.46 197.93 255.72C201.84 256.11 202.65 252.31 204.04 249.54C207.86 239.54 208.81 224.31 198.07 213.84C204.76 218.6 209.77 226.69 210.48 236.45C214.3 227.17 216.69 216.22 208.1 203.13C210.48 205.98 212.16 209.31 213.58 212.41C215.26 206.7 219.31 202.41 223.85 200.27C216.45 204.32 214.78 211.22 215.26 217.17C215.97 220.5 216.45 223.83 216.21 227.17C222.65 220.03 231.24 216.93 239.12 217.41C226.23 217.88 219.08 226.45 215.26 235.02C214.78 237.4 214.06 239.78 213.11 242.16C212.4 243.59 211.92 245.02 211.44 246.2C213.82 244.06 216.45 243.11 220.98 242.16C226.47 241.21 234.11 238.83 236.73 228.83C236.49 235.02 231.72 241.21 226.23 244.06C232.2 245.73 236.5 250.02 238.64 254.78C234.59 247.4 228.14 245.5 222.18 245.73L221.94 245.73C221.61 245.8 221.28 245.87 220.95 245.95C215.33 247.36 211.44 250.99 208.95 256.12C205.97 262.26 209.13 267.51 212.09 272.98C217.58 283.13 219.84 296.88 220.03 307.61C220.09 311.24 205.24 311.23 205.47 307.61Z" />
		<path fill-rule="evenodd" class="shp4" d="M203.57 362.34C113.71 362.34 40.67 289.3 40.67 199.45C40.67 109.59 113.71 36.55 203.57 36.55C293.42 36.55 366.47 109.59 366.47 199.45C366.47 289.3 293.42 362.34 203.57 362.34ZM203.57 46.32C119.12 46.32 50.44 115 50.44 199.45C50.44 283.89 119.19 352.57 203.57 352.57C288.02 352.57 356.69 283.83 356.69 199.45C356.69 115 288.02 46.32 203.57 46.32Z" />
		<path fill-rule="evenodd" class="shp4" d="M203.57 316.73C138.87 316.73 86.28 264.15 86.28 199.45C86.28 134.74 138.87 82.22 203.57 82.22C268.27 82.22 320.79 134.81 320.79 199.45C320.86 264.08 268.27 316.73 203.57 316.73ZM203.57 90.95C143.75 90.95 95.14 139.63 95.14 199.38C95.14 259.13 143.75 307.87 203.57 307.87C263.39 307.87 311.99 259.2 311.99 199.45C311.99 139.69 263.39 90.95 203.57 90.95Z" />
		<path fill-rule="evenodd" class="shp5" d="M223.5 382.96C133.65 382.96 60.6 309.92 60.6 220.07C60.6 130.21 133.65 57.17 223.5 57.17C313.36 57.17 386.4 130.21 386.4 220.07C386.4 309.92 313.36 382.96 223.5 382.96ZM223.5 66.94C139.05 66.94 70.38 135.62 70.38 220.07C70.38 304.51 139.12 373.19 223.5 373.19C307.95 373.19 376.63 304.45 376.63 220.07C376.63 135.62 307.95 66.94 223.5 66.94Z" />
		<path fill-rule="evenodd" class="shp5" d="M223.5 337.35C158.8 337.35 106.21 284.77 106.21 220.07C106.21 155.36 158.8 102.84 223.5 102.84C288.21 102.84 340.72 155.43 340.72 220.07C340.79 284.7 288.21 337.35 223.5 337.35ZM223.5 111.58C163.69 111.58 115.08 160.25 115.08 220C115.08 279.75 163.69 328.49 223.5 328.49C283.32 328.49 331.93 279.82 331.93 220.07C331.93 160.31 283.32 111.58 223.5 111.58Z" />
		<path fill-rule="evenodd" class="shp6" d="M181.66 383.14C95.55 383.14 25.55 313.14 25.55 227.03C25.55 140.91 95.55 70.91 181.66 70.91C267.77 70.91 337.77 140.91 337.77 227.03C337.77 313.14 267.77 383.14 181.66 383.14ZM181.66 80.28C100.73 80.28 34.92 146.1 34.92 227.03C34.92 307.95 100.79 373.77 181.66 373.77C262.59 373.77 328.4 307.89 328.4 227.03C328.4 146.1 262.59 80.28 181.66 80.28Z" />
		<path fill-rule="evenodd" class="shp6" d="M181.66 339.43C119.65 339.43 69.26 289.03 69.26 227.03C69.26 165.02 119.65 114.69 181.66 114.69C243.67 114.69 294 165.08 294 227.03C294.06 288.97 243.67 339.43 181.66 339.43ZM181.66 123.05C124.34 123.05 77.75 169.7 77.75 226.96C77.75 284.22 124.34 330.93 181.66 330.93C238.98 330.93 285.57 284.29 285.57 227.03C285.57 169.76 238.98 123.05 181.66 123.05Z" />
		<path class="shp3" d="M-175.5 -217.08L-174 -217.08L-174 -200.58L-175.5 -200.58L-175.5 -217.08ZM-210 -182.58L-193.5 -182.58L-193.5 -181.08L-210 -181.08L-210 -182.58ZM574.5 -217.08L576 -217.08L576 -200.58L574.5 -200.58L574.5 -217.08ZM592.5 -182.58L610.5 -182.58L610.5 -181.08L592.5 -181.08L592.5 -182.58ZM-175.5 585.42L-174 585.42L-174 603.42L-175.5 603.42L-175.5 585.42ZM-210 567.42L-193.5 567.42L-193.5 568.92L-210 568.92L-210 567.42ZM574.5 585.42L576 585.42L576 603.42L574.5 603.42L574.5 585.42ZM592.5 567.42L610.5 567.42L610.5 568.92L592.5 568.92L592.5 567.42Z" />
	</g>
</svg>