<?xml version="1.0" standalone="no"?>
<!DOCTYPE svg PUBLIC "-//W3C//DTD SVG 20010904//EN"
 "http://www.w3.org/TR/2001/REC-SVG-20010904/DTD/svg10.dtd">
<svg version="1.0" xmlns="http://www.w3.org/2000/svg"
 width="83.000000pt" height="94.000000pt" viewBox="0 0 83.000000 94.000000"
 preserveAspectRatio="xMidYMid meet">

<g transform="translate(0.000000,94.000000) scale(0.100000,-0.100000)"
fill="#000000" stroke="none">
<path d="M343 832 c-28 -10 -68 -31 -88 -46 -102 -78 -141 -235 -85 -344 l16
-34 27 60 c15 33 27 70 27 83 0 74 54 159 117 185 70 30 164 11 214 -42 18
-19 32 -24 71 -24 26 0 48 2 48 5 0 16 -32 64 -62 91 -78 74 -190 100 -285 66z"/>
<path d="M272 448 c-78 -155 -140 -283 -139 -284 1 -1 22 -4 47 -6 l45 -3 38
73 c37 69 40 73 65 67 136 -37 230 -15 317 74 l39 41 -64 0 c-44 0 -77 -6
-107 -21 -34 -16 -57 -20 -94 -17 -28 3 -55 10 -60 15 -7 7 1 33 22 77 l32 68
21 -34 c19 -30 25 -33 69 -33 26 0 47 1 47 3 0 5 -130 262 -133 262 -2 0 -67
-127 -145 -282z"/>
<path d="M557 213 c8 -21 20 -44 25 -50 11 -14 98 -18 98 -6 0 4 -8 27 -17 50
-18 43 -18 43 -70 43 l-52 0 16 -37z"/>
</g>
</svg>
