<svg xmlns="http://www.w3.org/2000/svg" viewBox="0 0 64 64" width="63" height="63">
	<style>
		tspan { white-space:pre }
		.shp0 { fill: #f0bc5e } 
		.shp1 { fill: #000000 } 
	</style>
	<g id="Layer">
		<g id="Layer">
			<path id="Layer" class="shp0" d="M5 52L59 52C60.66 52 62 50.66 62 49L62 43L2 43L2 49C2 50.66 3.34 52 5 52Z" />
		</g>
		<g id="Layer">
			<path id="Layer" class="shp0" d="M7 25L29 25L29 38L7 38L7 25Z" />
		</g>
		<g id="Layer">
			<path id="Layer" class="shp1" d="M55 47L57 47L57 49L55 49L55 47Z" />
			<path id="Layer" class="shp1" d="M51 47L53 47L53 49L51 49L51 47Z" />
			<path id="Layer" class="shp1" d="M47 47L49 47L49 49L47 49L47 47Z" />
			<path id="Layer" fill-rule="evenodd" class="shp1" d="M63 11L63 49C63 51.21 61.21 53 59 53L43.19 53C43.74 54.61 45.41 56.24 46.35 57L49 57C50.1 57 51 57.9 51 59L51 61C51 62.1 50.1 63 49 63L15 63C13.9 63 13 62.1 13 61L13 59C13 57.9 13.9 57 15 57L17.65 57C18.58 56.24 20.26 54.61 20.81 53L5 53C2.79 53 1 51.21 1 49L1 11C1 8.79 2.79 7 5 7L7 7L7 1L29 1L29 7L59 7C61.21 7 63 8.79 63 11ZM9 21L27 21L27 7L9 7L9 21ZM9 3L9 5L27 5L27 3L9 3ZM49 59L15 59L15 61L49 61L49 59ZM41.12 53L22.88 53C22.55 54.54 21.54 55.95 20.57 57L43.43 57C42.46 55.95 41.45 54.54 41.12 53ZM61 11C61 9.9 60.1 9 59 9L29 9L29 23L7 23L7 9L5 9C3.9 9 3 9.9 3 11L3 49C3 50.1 3.9 51 5 51L59 51C60.1 51 61 50.1 61 49L61 11Z" />
			<path id="Layer" class="shp1" d="M7 25L13 25L13 27L7 27L7 25Z" />
			<path id="Layer" class="shp1" d="M15 25L29 25L29 27L15 27L15 25Z" />
			<path id="Layer" class="shp1" d="M7 33L13 33L13 35L7 35L7 33Z" />
			<path id="Layer" class="shp1" d="M15 33L21 33L21 35L15 35L15 33Z" />
			<path id="Layer" class="shp1" d="M23 33L29 33L29 35L23 35L23 33Z" />
			<path id="Layer" class="shp1" d="M7 29L29 29L29 31L7 31L7 29Z" />
			<path id="Layer" class="shp1" d="M7 37L29 37L29 39L7 39L7 37Z" />
			<path id="Layer" fill-rule="evenodd" class="shp1" d="M55 16.1C57.28 16.57 59 18.59 59 21C59 23.41 57.28 25.43 55 25.9L55 29C55 30.1 54.1 31 53 31L50.24 31C49.93 31 49.62 30.93 49.34 30.79C47.37 29.8 45.2 29.21 43 29.05L43 35C43 37.21 41.21 39 39 39C36.79 39 35 37.21 35 35L35 27.92C32.61 26.53 31 23.95 31 21C31 16.59 34.59 13 39 13L41.76 13C44.38 13 47 12.38 49.34 11.21C49.62 11.07 49.93 11 50.24 11L53 11C54.1 11 55 11.9 55 13L55 16.1ZM39 15L39 27L41.76 27C44.24 27 46.71 27.5 49 28.44L49 13.56C46.71 14.5 44.24 15 41.76 15L39 15ZM37 26.65L37 15.35C34.67 16.18 33 18.39 33 21C33 23.61 34.67 25.82 37 26.65ZM41 35L41 29L39 29C38.31 29 37.64 28.9 37 28.74L37 35C37 36.1 37.9 37 39 37C40.1 37 41 36.1 41 35ZM53 13L51 13L51 29L53 29L53 13ZM57 21C57 19.7 56.16 18.6 55 18.18L55 23.82C56.16 23.4 57 22.3 57 21Z" />
			<path id="Layer" class="shp1" d="M23 9L21 9L21 17L19 17L19 11L17 11L17 17L15 17L15 13L13 13L13 17L11 17L11 19L25 19L25 17L23 17L23 9Z" />
		</g>
	</g>
</svg>