<svg xmlns="http://www.w3.org/2000/svg" viewBox="0 0 64 64" width="63" height="63">
	<style>
		tspan { white-space:pre }
		.shp0 { fill: #f0bc5e } 
		.shp1 { fill: #000000 } 
	</style>
	<g id="Layer">
		<g id="Layer">
			<path id="Layer" class="shp0" d="M48 5L51 14L58 14L52 18L54 25L48 20.75L42 25L44 18L38 14L45 14L48 5Z" />
		</g>
		<g id="Layer">
			<path id="Layer" class="shp0" d="M35 35L35 53L45 53L45 48L55 48L55 35L35 35Z" />
		</g>
		<g id="Layer">
			<path id="Layer" fill-rule="evenodd" class="shp1" d="M59 26.16L59 54C59 55.65 57.65 57 56 57L39 57L39 60.59C39 61.92 37.92 63 36.59 63C35.95 63 35.33 62.74 34.88 62.29L29.59 57L4 57C2.35 57 1 55.65 1 54L1 14C1 12.35 2.35 11 4 11L33.88 11C35.94 5.18 41.48 1 48 1C56.27 1 63 7.73 63 16C63 19.92 61.47 23.49 59 26.16ZM35 16C35 23.17 40.83 29 48 29C55.17 29 61 23.17 61 16C61 8.83 55.17 3 48 3C40.83 3 35 8.83 35 16ZM57 54L57 27.97C54.49 29.86 51.38 31 48 31C39.73 31 33 24.27 33 16C33 14.97 33.1 13.97 33.3 13L4 13C3.45 13 3 13.45 3 14L3 54C3 54.55 3.45 55 4 55L30.41 55L36.29 60.88C36.53 61.12 37 60.92 37 60.59L37 55L56 55C56.55 55 57 54.55 57 54Z" />
			<path id="Layer" fill-rule="evenodd" class="shp1" d="M26.47 40.57C28.46 40.9 30.23 41.97 31.44 43.58C32.45 44.93 33 46.59 33 48.27L33 53L5 53L5 48.27C5 46.59 5.56 44.93 6.56 43.58C7.77 41.97 9.54 40.89 11.53 40.56L14.24 40.11L14.7 38.73C13.02 37.66 11.78 35.98 11.26 34L11 34C8.79 34 7 32.21 7 30C7 29.07 7.33 28.22 7.87 27.54C7.57 26.59 7 24.61 7 23C7 20.97 8.52 19.29 10.47 19.03L10.98 18.36C12.56 16.25 15.07 15 17.7 15C18.68 15 19.65 15.17 20.57 15.5L27.15 17.9C29.45 18.74 31 20.95 31 23.4C31 23.88 30.94 24.36 30.83 24.82L30.1 27.51C30.66 28.19 31 29.05 31 30C31 32.21 29.21 34 27 34L26.74 34C26.22 35.98 24.98 37.66 23.3 38.73L23.76 40.11L26.47 40.57ZM23.26 42.06L20.67 44L22.64 45.48L24.25 42.22L23.26 42.06ZM29 30C29 28.9 28.1 28 27 28L27 32C28.1 32 29 31.1 29 30ZM9 23C9 24.04 9.31 25.35 9.58 26.27C10.02 26.1 10.5 26 11 26L13.76 26C16.23 26 18.55 25.04 20.29 23.29L21 22.59L21.71 23.29C22.91 24.49 24.39 25.41 26 25.94L26.16 26L27 26C27.48 26 27.94 26.1 28.37 26.26L28.89 24.32C28.96 24.03 29 23.72 29 23.4C29 21.79 27.98 20.33 26.46 19.78L19.88 17.38C19.18 17.13 18.45 17 17.7 17C15.7 17 13.78 17.96 12.58 19.56L11.5 21L11 21C9.9 21 9 21.9 9 23ZM11 32L11 28C9.9 28 9 28.9 9 30C9 31.1 9.9 32 11 32ZM19 38C22.31 38 25 35.31 25 32L25 27.71C23.54 27.18 22.18 26.37 21 25.36C18.97 27.07 16.44 28 13.76 28L13 28L13 32C13 35.31 15.69 38 19 38ZM16.52 39.6L16.18 40.63L19 42.75L21.82 40.63L21.48 39.6C20.7 39.86 19.87 40 19 40C18.13 40 17.3 39.86 16.52 39.6ZM13.75 42.22L15.36 45.48L17.33 44L14.74 42.06L13.75 42.22ZM31 48.27C31 47.02 30.59 45.78 29.84 44.78C28.97 43.63 27.71 42.86 26.3 42.58L23.36 48.52L19 45.25L14.64 48.52L11.7 42.58C10.29 42.86 9.03 43.63 8.16 44.78C7.41 45.78 7 47.02 7 48.27L7 51L31 51L31 48.27Z" />
			<path id="Layer" class="shp1" d="M35 47L55 47L55 49L35 49L35 47Z" />
			<path id="Layer" class="shp1" d="M35 39L55 39L55 41L35 41L35 39Z" />
			<path id="Layer" class="shp1" d="M35 35L41 35L41 37L35 37L35 35Z" />
			<path id="Layer" class="shp1" d="M43 35L55 35L55 37L43 37L43 35Z" />
			<path id="Layer" class="shp1" d="M49 43L55 43L55 45L49 45L49 43Z" />
			<path id="Layer" class="shp1" d="M35 43L47 43L47 45L35 45L35 43Z" />
			<path id="Layer" class="shp1" d="M35 51L37 51L37 53L35 53L35 51Z" />
			<path id="Layer" class="shp1" d="M39 51L41 51L41 53L39 53L39 51Z" />
			<path id="Layer" class="shp1" d="M43 51L45 51L45 53L43 53L43 51Z" />
		</g>
	</g>
</svg>