<svg xmlns="http://www.w3.org/2000/svg" viewBox="0 0 64 64" width="63" height="63">
	<style>
		tspan { white-space:pre }
		.shp0 { fill: #f0bc5e } 
		.shp1 { fill: #000000 } 
	</style>
	<g id="Layer">
		<g id="Layer">
			<path id="Layer" class="shp0" d="M25 52C23.89 52 23 51.1 23 50C23 48.9 23.89 48 25 48L39 48C40.1 48 41 48.9 41 50C41 51.1 40.1 52 39 52L25 52Z" />
		</g>
		<g id="Layer">
			<path id="Layer" class="shp0" d="M39 56L25 56C23.89 56 23 55.1 23 54C23 52.9 23.89 52 25 52L39 52C40.1 52 41 52.9 41 54C41 55.1 40.1 56 39 56Z" />
		</g>
		<g id="Layer">
			<path id="Layer" class="shp0" d="M32 30C25.92 30 21 25.08 21 19C21 12.92 25.92 8 32 8C38.08 8 43 12.92 43 19C43 25.08 38.08 30 32 30Z" />
		</g>
		<g id="Layer">
			<path id="Layer" class="shp0" d="M11 42C6.02 42 2 37.98 2 33C2 28.02 6.02 24 11 24C15.98 24 20 28.02 20 33C20 37.98 15.98 42 11 42Z" />
		</g>
		<g id="Layer">
			<path id="Layer" class="shp0" d="M53 42C48.02 42 44 37.98 44 33C44 28.02 48.02 24 53 24C57.98 24 62 28.02 62 33C62 37.98 57.98 42 53 42Z" />
		</g>
		<path id="Layer" fill-rule="evenodd" class="shp1" d="M53 23C58.51 23 63 27.49 63 33C63 38.51 58.51 43 53 43C49.13 43 45.77 40.78 44.11 37.56C43.29 39.31 43.16 41.32 43.77 43.15C43.92 43.61 44 44.08 44 44.56C44 45.76 43.53 46.88 42.69 47.72L41.7 48.71C41.89 49.11 42 49.54 42 50C42 50.77 41.7 51.47 41.22 52C41.7 52.53 42 53.23 42 54C42 55.36 41.08 56.5 39.84 56.87C38.92 60.49 35.73 63 32 63C28.24 63 25.04 60.45 24.16 56.86C22.92 56.5 22 55.36 22 54C22 53.23 22.3 52.53 22.78 52C22.3 51.47 22 50.77 22 50C22 49.54 22.11 49.11 22.3 48.71L21.31 47.72C20.46 46.88 20 45.76 20 44.56C20 44.08 20.08 43.61 20.23 43.15C20.84 41.32 20.71 39.31 19.89 37.56C18.23 40.78 14.87 43 11 43C5.49 43 1 38.51 1 33C1 27.49 5.49 23 11 23C11.79 23 12.55 23.1 13.29 23.27C13.1 22.18 13 21.09 13 20C13 9.52 21.52 1 32 1C42.48 1 51 9.52 51 20C51 21.09 50.9 22.18 50.71 23.27C51.45 23.1 52.21 23 53 23ZM15 20C15 21.37 15.17 22.71 15.49 24.08C16.74 24.71 17.84 25.58 18.72 26.65L21.5 24.8C20.55 23.08 20 21.1 20 19C20 12.38 25.38 7 32 7C38.62 7 44 12.38 44 19C44 21.1 43.45 23.08 42.5 24.8L45.28 26.65C46.16 25.58 47.27 24.71 48.51 24.08C48.83 22.71 49 21.37 49 20C49 10.63 41.37 3 32 3C22.63 3 15 10.63 15 20ZM39 49L25 49C24.45 49 24 49.45 24 50C24 50.55 24.45 51 25 51L39 51C39.55 51 40 50.55 40 50C40 49.45 39.55 49 39 49ZM29 41.39C29 43.35 28.56 45.26 27.72 47L31 47L31 30.95C30.32 30.89 29.65 30.77 29 30.61L29 41.39ZM33 47L36.28 47C35.44 45.26 35 43.35 35 41.39L35 30.61C34.35 30.77 33.69 30.89 33 30.95L33 47ZM32 29C34.15 29 36.13 28.32 37.76 27.16L37.24 25.09C36.64 22.68 34.48 21 32 21C29.52 21 27.36 22.68 26.76 25.09L26.24 27.16C27.87 28.32 29.86 29 32 29ZM39.44 25.65C41.03 23.88 42 21.56 42 19C42 13.49 37.51 9 32 9C26.49 9 22 13.49 22 19C22 21.56 22.97 23.88 24.56 25.65L24.82 24.61C25.36 22.43 26.84 20.71 28.75 19.77C27.69 18.85 27 17.51 27 16C27 13.24 29.24 11 32 11C34.76 11 37 13.24 37 16C37 17.51 36.31 18.85 35.25 19.77C37.16 20.71 38.64 22.43 39.18 24.61L39.44 25.65ZM32 19C33.65 19 35 17.65 35 16C35 14.35 33.65 13 32 13C30.35 13 29 14.35 29 16C29 17.65 30.35 19 32 19ZM7.15 40.01C8.29 40.64 9.61 41 11 41C12.39 41 13.7 40.64 14.85 40.01L14.57 38.1C14.32 36.33 12.79 35 11 35C9.21 35 7.68 36.33 7.43 38.1L7.15 40.01ZM19 33C19 28.59 15.41 25 11 25C6.59 25 3 28.59 3 33C3 35.2 3.89 37.19 5.33 38.63L5.44 37.82C5.69 36.09 6.72 34.64 8.14 33.79C7.44 33.07 7 32.09 7 31C7 28.79 8.79 27 11 27C13.21 27 15 28.79 15 31C15 32.09 14.56 33.07 13.86 33.79C15.28 34.64 16.31 36.09 16.55 37.82L16.67 38.63C18.11 37.19 19 35.2 19 33ZM11 33C12.1 33 13 32.1 13 31C13 29.9 12.1 29 11 29C9.9 29 9 29.9 9 31C9 32.1 9.9 33 11 33ZM22.13 43.78C22.04 44.04 22 44.3 22 44.56C22 45.22 22.26 45.84 22.72 46.31L23.71 47.3C24.11 47.11 24.54 47 25 47L25.44 47C26.46 45.31 27 43.38 27 41.39L27 29.89C25.28 29.1 23.78 27.92 22.62 26.46L19.83 28.32C20.57 29.71 21 31.31 21 33C21 33.7 20.93 34.38 20.79 35.05C21.02 35.43 21.24 35.82 21.45 36.19C22.71 38.51 22.96 41.28 22.13 43.78ZM37.72 57L26.29 57C27.14 59.37 29.39 61 32 61C34.61 61 36.86 59.37 37.72 57ZM40 54C40 53.45 39.55 53 39 53L25 53C24.45 53 24 53.45 24 54C24 54.55 24.45 55 25 55L39 55C39.55 55 40 54.55 40 54ZM42.56 36.19C42.76 35.82 42.98 35.43 43.21 35.05C43.07 34.38 43 33.7 43 33C43 31.31 43.43 29.71 44.17 28.32L41.38 26.46C40.22 27.92 38.72 29.1 37 29.89L37 41.39C37 43.38 37.54 45.3 38.56 47L39 47C39.46 47 39.89 47.11 40.29 47.3L41.28 46.31C41.74 45.84 42 45.22 42 44.56C42 44.3 41.96 44.03 41.87 43.78C41.04 41.28 41.29 38.51 42.56 36.19ZM49.15 40.01C50.3 40.64 51.61 41 53 41C54.39 41 55.71 40.64 56.85 40.01L56.58 38.1C56.32 36.33 54.79 35 53 35C51.21 35 49.68 36.33 49.43 38.1L49.15 40.01ZM58.67 38.63C60.11 37.19 61 35.2 61 33C61 28.59 57.41 25 53 25C48.59 25 45 28.59 45 33C45 35.2 45.89 37.19 47.33 38.64L47.44 37.82C47.69 36.09 48.72 34.64 50.14 33.79C49.44 33.07 49 32.09 49 31C49 28.79 50.79 27 53 27C55.21 27 57 28.79 57 31C57 32.09 56.56 33.07 55.86 33.79C57.28 34.64 58.31 36.09 58.55 37.82L58.67 38.63ZM53 33C54.1 33 55 32.1 55 31C55 29.9 54.1 29 53 29C51.9 29 51 29.9 51 31C51 32.1 51.9 33 53 33Z" />
	</g>
</svg>