<svg xmlns="http://www.w3.org/2000/svg" viewBox="0 0 496 496" width="63" height="63">
	<style>
		tspan { white-space:pre }
		.shp0 { fill: #f9ba48 } 
		.shp1 { fill: #333333 } 
	</style>
	<path id="Layer" fill-rule="evenodd" class="shp0" d="M357.96 208L330.81 208C328.54 216.78 325.09 225.06 320.59 232.69L339.78 251.88L305.84 285.82L286.64 266.63C279.03 271.14 270.74 274.59 261.96 276.86L261.96 304L213.96 304L213.96 276.86C205.17 274.59 196.89 271.14 189.27 266.63L170.08 285.82L136.13 251.88L155.32 232.69C150.82 225.07 147.36 216.78 145.1 208L117.96 208L117.96 160L145.1 160C147.37 151.22 150.82 142.94 155.32 135.31L136.13 116.12L170.08 82.18L189.27 101.37C196.88 96.86 205.17 93.41 213.96 91.14L213.96 64L261.96 64L261.96 91.14C270.74 93.42 279.02 96.86 286.64 101.37L305.84 82.18L339.78 116.12L320.59 135.31C325.09 142.93 328.55 151.22 330.81 160L357.96 160L357.96 208ZM293.96 184C293.96 153.07 268.88 128 237.96 128C207.03 128 181.96 153.07 181.96 184C181.96 214.93 207.03 240 237.96 240C268.88 240 293.96 214.93 293.96 184Z" />
	<g id="Layer">
		<path id="Layer" fill-rule="evenodd" class="shp1" d="M301.96 184C301.96 219.29 273.24 248 237.96 248C202.67 248 173.96 219.29 173.96 184C173.96 148.71 202.67 120 237.96 120C273.24 120 301.96 148.71 301.96 184ZM285.96 184C285.96 157.53 264.43 136 237.96 136C211.48 136 189.96 157.53 189.96 184C189.96 210.47 211.48 232 237.96 232C264.43 232 285.96 210.47 285.96 184Z" />
		<path id="Layer" fill-rule="evenodd" class="shp1" d="M481.28 96C481.15 96.33 481.02 96.66 480.88 96.98L489.84 105.94L455.89 139.89L446.93 130.92C446.61 131.06 446.28 131.19 445.96 131.33L445.96 144L417.31 144C420.25 157.18 421.8 170.6 421.8 184.07L421.83 213.26C421.83 219.45 421.44 225.72 420.88 232L445.96 232L445.96 244.67C446.28 244.81 446.61 244.94 446.93 245.08L455.89 236.11L489.84 270.06L480.88 279.02C481.02 279.34 481.15 279.67 481.28 280L493.96 280L493.96 328L481.28 328C481.15 328.33 481.02 328.66 480.88 328.98L489.84 337.94L455.89 371.89L446.93 362.92C446.61 363.06 446.28 363.19 445.96 363.33L445.96 376L397.96 376L397.96 363.33C397.63 363.19 397.3 363.06 396.98 362.92L388.02 371.89L368.88 352.75C358.37 364.65 346.72 375.34 333.96 384.52L333.96 496L317.96 496L317.96 376.17L321.42 373.78C334.72 364.62 346.79 353.7 357.54 341.41L354.07 337.94L363.04 328.98C362.89 328.66 362.76 328.33 362.63 328L349.96 328L349.96 280L362.63 280C362.76 279.67 362.89 279.34 363.04 279.02L354.07 270.06L388.02 236.11L396.98 245.08C397.3 244.94 397.63 244.81 397.96 244.67L397.96 232L404.82 232C405.42 225.72 405.83 219.45 405.83 213.26L405.8 184.08C405.8 170.58 404.07 157.14 400.84 144L397.96 144L397.96 131.33C397.63 131.19 397.3 131.06 396.98 130.92L388.02 139.89L354.07 105.94L363.04 96.98C362.89 96.66 362.76 96.33 362.63 96L349.96 96L349.96 59.25C319.66 32.03 280.85 16.69 240.08 16.17C160.09 14.93 90.23 71.71 73.47 150.66C69.2 170.71 68.84 191.45 72.36 212.3L72.84 215.09L25.87 299.09L77.96 313.97L77.96 408L157.96 408L157.96 496L141.96 496L141.96 424L61.96 424L61.96 326.03L2.04 308.91L56.13 212.17C52.76 190.26 53.32 168.46 57.81 147.34C76 61.71 151.53 0.15 237.96 0.15C238.73 0.15 239.5 0.16 240.28 0.17C285.28 0.74 328.1 17.77 361.39 48L362.63 48C362.76 47.67 362.89 47.34 363.04 47.02L354.07 38.06L388.02 4.11L396.98 13.08C397.3 12.94 397.63 12.81 397.96 12.67L397.96 0L445.96 0L445.96 12.67C446.28 12.81 446.61 12.94 446.93 13.08L455.89 4.11L489.84 38.06L480.88 47.02C481.02 47.34 481.15 47.67 481.28 48L493.96 48L493.96 96C493.96 96 481.28 96 481.28 96ZM429.96 256.31L429.96 248L413.96 248L413.96 256.31L408.24 258.02C404.98 258.99 401.92 260.26 399.13 261.77L393.88 264.62L388.02 258.75L376.71 270.06L382.57 275.92L379.72 281.18C378.2 283.97 376.95 287.03 375.97 290.29L374.27 296L365.96 296L365.96 312L374.27 312L375.97 317.71C376.95 320.98 378.21 324.03 379.72 326.82L382.57 332.08L376.71 337.94L388.02 349.25L393.88 343.38L399.13 346.23C401.92 347.75 404.99 349.01 408.24 349.98L413.96 351.69L413.96 360L429.96 360L429.96 351.69L435.67 349.98C438.93 349.01 441.99 347.74 444.78 346.23L450.04 343.38L455.89 349.25L467.2 337.94L461.34 332.08L464.19 326.82C465.71 324.03 466.96 320.97 467.94 317.71L469.64 312L477.96 312L477.96 296L469.64 296L467.94 290.29C466.96 287.02 465.7 283.97 464.19 281.18L461.34 275.92L467.2 270.06L455.89 258.75L450.04 264.62L444.78 261.77C441.99 260.25 438.92 258.99 435.67 258.02L429.96 256.31ZM477.96 64L469.64 64L467.94 58.29C466.96 55.02 465.7 51.97 464.19 49.18L461.34 43.92L467.2 38.06L455.89 26.75L450.04 32.62L444.78 29.77C441.99 28.25 438.92 26.99 435.67 26.02L429.96 24.31L429.96 16L413.96 16L413.96 24.31L408.24 26.02C404.98 26.99 401.92 28.26 399.13 29.77L393.88 32.62L388.02 26.75L376.71 38.06L382.57 43.92L379.72 49.18C378.2 51.97 376.95 55.03 375.97 58.29L374.27 64L365.96 64L365.96 80L374.27 80L375.97 85.71C376.95 88.98 378.21 92.03 379.72 94.82L382.57 100.08L376.71 105.94L388.02 117.25L393.88 111.38L399.13 114.23C401.92 115.75 404.99 117.01 408.24 117.98L413.96 119.69L413.96 128L429.96 128L429.96 119.69L435.67 117.98C438.93 117.01 441.99 115.74 444.78 114.23L450.04 111.38L455.89 117.25L467.2 105.94L461.34 100.08L464.19 94.82C465.71 92.03 466.96 88.97 467.94 85.71L469.64 80L477.96 80L477.96 64Z" />
		<path id="Layer" fill-rule="evenodd" class="shp1" d="M453.96 72C453.96 89.65 439.6 104 421.96 104C404.31 104 389.96 89.65 389.96 72C389.96 54.35 404.31 40 421.96 40C439.6 40 453.96 54.35 453.96 72ZM437.96 72C437.96 63.18 430.78 56 421.96 56C413.13 56 405.96 63.18 405.96 72C405.96 80.82 413.13 88 421.96 88C430.78 88 437.96 80.82 437.96 72Z" />
		<path id="Layer" fill-rule="evenodd" class="shp1" d="M421.96 272C439.6 272 453.96 286.35 453.96 304C453.96 321.65 439.6 336 421.96 336C404.31 336 389.96 321.65 389.96 304C389.96 286.35 404.31 272 421.96 272ZM421.96 288C413.13 288 405.96 295.18 405.96 304C405.96 312.82 413.13 320 421.96 320C430.78 320 437.96 312.82 437.96 304C437.96 295.18 430.78 288 421.96 288Z" />
	</g>
	<g id="Layer">
	</g>
	<g id="Layer">
	</g>
	<g id="Layer">
	</g>
	<g id="Layer">
	</g>
	<g id="Layer">
	</g>
	<g id="Layer">
	</g>
	<g id="Layer">
	</g>
	<g id="Layer">
	</g>
	<g id="Layer">
	</g>
	<g id="Layer">
	</g>
	<g id="Layer">
	</g>
	<g id="Layer">
	</g>
	<g id="Layer">
	</g>
	<g id="Layer">
	</g>
	<g id="Layer">
	</g>
</svg>