<svg xmlns="http://www.w3.org/2000/svg" viewBox="0 0 64 64" width="63" height="63">
	<style>
		tspan { white-space:pre }
		.shp0 { fill: #f0bc5e } 
		.shp1 { fill: #000000 } 
	</style>
	<g id="Layer">
		<g id="Layer">
			<path id="Layer" class="shp0" d="M59 23L41 23L41 11L59 11L59 23Z" />
		</g>
		<g id="Layer">
			<path id="Layer" class="shp0" d="M59 35L41 35L41 26L59 26L59 35Z" />
		</g>
		<g id="Layer">
			<path id="Layer" class="shp0" d="M5 23L37 23L37 35L5 35L5 23Z" />
		</g>
		<g id="Layer">
			<path id="Layer" class="shp0" d="M19 47L5 47L5 37L19 37L19 47Z" />
		</g>
		<g id="Layer">
			<path id="Layer" class="shp0" d="M35 47L21 47L21 37L35 37L35 47Z" />
		</g>
		<g id="Layer">
			<path id="Layer" fill-rule="evenodd" class="shp1" d="M63 6L63 42C63 44.76 60.76 47 58 47L55 47L55 52C55 54.76 52.76 57 50 57L37 57L37 61L41 61L41 63L15 63L15 61L19 61L19 57L6 57C3.24 57 1 54.76 1 52L1 24C1 21.24 3.24 19 6 19L37 19L37 6C37 3.24 39.24 1 42 1L58 1C60.76 1 63 3.24 63 6ZM39 6L39 7L61 7L61 6C61 4.35 59.65 3 58 3L42 3C40.35 3 39 4.35 39 6ZM39 9L39 37L61 37L61 9L39 9ZM35 57L21 57L21 61L35 61L35 57ZM53 52L53 51L3 51L3 52C3 53.65 4.35 55 6 55L50 55C51.65 55 53 53.65 53 52ZM53 47L42 47C39.24 47 37 44.76 37 42L37 21L6 21C4.35 21 3 22.35 3 24L3 49L53 49L53 47ZM61 42L61 39L39 39L39 42C39 43.65 40.35 45 42 45L58 45C59.65 45 61 43.65 61 42Z" />
			<path id="Layer" class="shp1" d="M47 41L53 41L53 43L47 43L47 41Z" />
			<path id="Layer" class="shp1" d="M57 33L59 33L59 35L57 35L57 33Z" />
			<path id="Layer" class="shp1" d="M41 33L55 33L55 35L41 35L41 33Z" />
			<path id="Layer" class="shp1" d="M41 29L59 29L59 31L41 31L41 29Z" />
			<path id="Layer" class="shp1" d="M41 25L59 25L59 27L41 27L41 25Z" />
			<path id="Layer" class="shp1" d="M21 37L35 37L35 39L21 39L21 37Z" />
			<path id="Layer" class="shp1" d="M21 41L35 41L35 43L21 43L21 41Z" />
			<path id="Layer" class="shp1" d="M21 45L31 45L31 47L21 47L21 45Z" />
			<path id="Layer" class="shp1" d="M33 45L35 45L35 47L33 47L33 45Z" />
		</g>
	</g>
</svg>